<svg width="71" height="19" viewBox="0 0 71 19" xmlns="http://www.w3.org/2000/svg"><title>Citi_Bank</title><g fill="none" fill-rule="evenodd"><path d="M28.295 4.82C26.187 1.833 22.688.052 19.13.052c-3.56 0-7.06 1.78-9.164 4.766l-.108.15h2.653l.03-.03c1.807-1.864 4.164-2.85 6.59-2.85 2.423 0 4.78.986 6.59 2.85l.03.03h2.65l-.105-.15" fill="#CF242E"/><path d="M8.807 14.746l-.05.05c-.817.83-1.76 1.27-2.73 1.27-2.03 0-3.5-1.523-3.5-3.62 0-2.097 1.47-3.62 3.5-3.62.97 0 1.913.44 2.73 1.273l.05.05 1.303-1.577-.034-.043C8.99 7.248 7.69 6.625 6.09 6.625c-1.606 0-3.073.54-4.13 1.515C.81 9.194.2 10.682.2 12.445c0 1.76.607 3.254 1.757 4.31 1.057.978 2.524 1.514 4.13 1.514 1.6 0 2.9-.624 3.986-1.906l.034-.04-1.303-1.578zm2.622 3.31h2.302V6.805H11.43v11.25zm11.328-2.447c-.614.374-1.187.562-1.7.562-.746 0-1.08-.392-1.08-1.267v-5.97h2.346V6.818h-2.347v-3.5l-2.26 1.208v2.292h-1.946v2.12h1.948v6.347c0 1.73 1.025 2.91 2.555 2.943 1.038.02 1.664-.29 2.045-.516l.022-.014.554-2.17-.136.083zm1.91 2.445h2.304V6.807h-2.305v11.248zM63.72 2.527v10.73l.717-1.117c-.002.005 3.224-4.666 3.636-5.26h1.44c-.308.41-2.844 3.9-2.844 3.9s3.303 6.884 3.494 7.275h-1.41c-.08-.16-2.917-6.168-2.917-6.168l-2.118 2.97v3.198h-1.316V3.278c.115-.066 1.005-.576 1.316-.75zM52.92 8.21c.676-1.014 1.74-1.572 2.983-1.572 2.48 0 3.793 1.582 3.793 4.574v6.843h-1.318v-6.56c0-2.545-.884-3.728-2.8-3.728-1.833 0-2.926 1.394-2.926 3.728v6.56h-1.316V6.88h1.316V8.61l.267-.4zM44.835 6.64c2.55 0 3.79 1.166 3.79 3.567v7.85h-1.313v-1.63l-.257.282c-.97 1.068-2.08 1.59-3.4 1.59-1.038 0-3.45-.343-3.45-3.525 0-2.6 2.146-3.524 4.157-3.524 1.01 0 2.01.232 2.732.64l.218.12V10.4c0-1.78-.87-2.68-2.586-2.68-1.06 0-2.016.266-2.995.82-.086-.2-.39-.872-.475-1.062 1.024-.54 2.288-.842 3.58-.842zm-3.34 8.025c0 1.67.865 2.59 2.44 2.59 1.336 0 2.526-.632 3.352-1.782l.025-.04v-2.448l-.075-.043c-.838-.48-1.698-.672-2.962-.672-1.738 0-2.78.895-2.78 2.395zM31.34 2.527v5.98l.255-.28c.968-1.07 2.042-1.59 3.274-1.59 2.465 0 3.88 2.056 3.88 5.643 0 3.654-1.607 6.017-4.097 6.017-1.213 0-2.185-.47-3.057-1.48l-.255-.298v1.535h-1.31V3.278c.11-.066 1.002-.576 1.31-.75zm.032 6.953l-.03.04v5.82l.022.035c.725 1.123 1.908 1.794 3.165 1.794 1.942 0 2.926-1.64 2.926-4.866 0-2.885-1.09-4.537-2.993-4.537-1.15 0-2.193.576-3.09 1.713z" fill="#174489"/></g></svg>