<?xml version="1.0" encoding="utf-8"?>
<!-- Generator: Adobe Illustrator 21.0.0, SVG Export Plug-In . SVG Version: 6.00 Build 0)  -->
<svg width="71" height="19" version="1.1" id="Layer_1" xmlns="http://www.w3.org/2000/svg" xmlns:xlink="http://www.w3.org/1999/xlink" x="0px" y="0px"
	 viewBox="0 0 71 19" style="enable-background:new 0 0 71 19;" xml:space="preserve">
<style type="text/css">
	.st0{fill:#858585;}
</style>
<title>Citi_Bank Copy</title>
<g>
	<path class="st0" d="M28.3,4.8c-2.1-3-5.6-4.8-9.2-4.8c-3.6,0-7.1,1.8-9.2,4.8L9.9,5h2.7l0,0c1.8-1.9,4.2-2.9,6.6-2.9
		c2.4,0,4.8,1,6.6,2.9l0,0h2.6L28.3,4.8"/>
	<path class="st0" d="M8.8,14.7L8.8,14.7C7.9,15.6,7,16.1,6,16.1c-2,0-3.5-1.5-3.5-3.6S4,8.8,6,8.8c1,0,1.9,0.4,2.7,1.3l0.1,0.1
		l1.3-1.6l0,0C9,7.2,7.7,6.6,6.1,6.6C4.5,6.6,3,7.2,2,8.1c-1.2,1.1-1.8,2.5-1.8,4.3c0,1.8,0.6,3.3,1.8,4.3c1.1,1,2.5,1.5,4.1,1.5
		c1.6,0,2.9-0.6,4-1.9l0,0L8.8,14.7L8.8,14.7z M11.4,18.1h2.3V6.8h-2.3L11.4,18.1L11.4,18.1z M22.8,15.6c-0.6,0.4-1.2,0.6-1.7,0.6
		c-0.7,0-1.1-0.4-1.1-1.3v-6h2.3V6.8H20V3.3l-2.3,1.2v2.3h-1.9v2.1h1.9v6.3c0,1.7,1,2.9,2.6,2.9c1,0,1.7-0.3,2-0.5l0,0l0.6-2.2
		L22.8,15.6L22.8,15.6z M24.7,18.1H27V6.8h-2.3L24.7,18.1L24.7,18.1z M63.7,2.5v10.7l0.7-1.1c0,0,3.2-4.7,3.6-5.3h1.4
		c-0.3,0.4-2.8,3.9-2.8,3.9s3.3,6.9,3.5,7.3h-1.4c-0.1-0.2-2.9-6.2-2.9-6.2l-2.1,3v3.2h-1.3V3.3C62.5,3.2,63.4,2.7,63.7,2.5
		L63.7,2.5z M52.9,8.2c0.7-1,1.7-1.6,3-1.6c2.5,0,3.8,1.6,3.8,4.6v6.8h-1.3v-6.6c0-2.5-0.9-3.7-2.8-3.7c-1.8,0-2.9,1.4-2.9,3.7v6.6
		h-1.3V6.9h1.3v1.7L52.9,8.2L52.9,8.2z M44.8,6.6c2.5,0,3.8,1.2,3.8,3.6v7.9h-1.3v-1.6l-0.3,0.3c-1,1.1-2.1,1.6-3.4,1.6
		c-1,0-3.5-0.3-3.5-3.5c0-2.6,2.1-3.5,4.2-3.5c1,0,2,0.2,2.7,0.6l0.2,0.1v-1.6c0-1.8-0.9-2.7-2.6-2.7c-1.1,0-2,0.3-3,0.8
		c-0.1-0.2-0.4-0.9-0.5-1.1C42.3,6.9,43.5,6.6,44.8,6.6L44.8,6.6z M41.5,14.7c0,1.7,0.9,2.6,2.4,2.6c1.3,0,2.5-0.6,3.4-1.8l0,0V13
		l-0.1,0c-0.8-0.5-1.7-0.7-3-0.7C42.5,12.3,41.5,13.2,41.5,14.7z M31.3,2.5v6l0.3-0.3c1-1.1,2-1.6,3.3-1.6c2.5,0,3.9,2.1,3.9,5.6
		c0,3.7-1.6,6-4.1,6c-1.2,0-2.2-0.5-3.1-1.5l-0.3-0.3v1.5H30V3.3C30.1,3.2,31,2.7,31.3,2.5L31.3,2.5z M31.4,9.5L31.4,9.5l0,5.9l0,0
		c0.7,1.1,1.9,1.8,3.2,1.8c1.9,0,2.9-1.6,2.9-4.9c0-2.9-1.1-4.5-3-4.5C33.3,7.8,32.3,8.3,31.4,9.5L31.4,9.5z"/>
</g>
</svg>
