<?xml version="1.0" encoding="utf-8"?>
<!-- Generator: Adobe Illustrator 21.0.0, SVG Export Plug-In . SVG Version: 6.00 Build 0)  -->
<svg width="126" height="28" version="1.1" id="Layer_1" xmlns="http://www.w3.org/2000/svg" xmlns:xlink="http://www.w3.org/1999/xlink" x="0px" y="0px"
	 viewBox="0 0 126 28" style="enable-background:new 0 0 126 28;" xml:space="preserve">
<style type="text/css">
	.st0{fill:#858585;}
</style>
<title>union</title>
<g>
	<path class="st0" d="M37,24.8c-0.9,0-1.8-0.1-2.5-0.4c-0.7-0.2-1.4-0.6-1.9-1.1c-0.5-0.5-0.9-1.1-1.2-1.8c-0.3-0.7-0.4-1.6-0.4-2.6
		v-7.2h3.7v7.2c0,0.9,0.2,1.6,0.6,2.1c0.4,0.5,1,0.7,1.7,0.7c0.7,0,1.3-0.2,1.7-0.6c0.4-0.4,0.7-1.1,0.7-2v-7.3h3.6v7.2
		c0,1-0.1,1.9-0.4,2.7c-0.3,0.8-0.7,1.4-1.2,1.9c-0.5,0.5-1.2,0.8-1.9,1.1C38.8,24.7,38,24.8,37,24.8L37,24.8z M72.8,14.9h3.5v1.4
		c0.2-0.2,0.3-0.4,0.5-0.6c0.2-0.2,0.4-0.4,0.7-0.5s0.5-0.3,0.8-0.4c0.3-0.1,0.6-0.1,1-0.1c1.1,0,1.9,0.3,2.5,1
		c0.6,0.7,0.9,1.6,0.9,2.7v6.5h-3.5v-5.4c0-0.6-0.1-1-0.4-1.3c-0.3-0.3-0.6-0.4-1-0.4c-0.4,0-0.8,0.1-1.1,0.4
		c-0.3,0.3-0.4,0.7-0.4,1.3v5.4h-3.5L72.8,14.9L72.8,14.9z M66.4,25.1c-0.8,0-1.5-0.1-2.2-0.4c-0.7-0.3-1.3-0.6-1.8-1.1
		c-0.5-0.5-0.9-1-1.2-1.6c-0.3-0.6-0.4-1.3-0.4-2v0c0-0.7,0.1-1.4,0.4-2c0.3-0.6,0.7-1.2,1.2-1.7c0.5-0.5,1.1-0.8,1.8-1.1
		c0.7-0.3,1.4-0.4,2.2-0.4s1.5,0.1,2.2,0.4c0.7,0.3,1.3,0.6,1.8,1.1c0.5,0.5,0.9,1,1.1,1.6c0.3,0.6,0.4,1.3,0.4,2v0
		c0,0.7-0.1,1.4-0.4,2c-0.3,0.6-0.7,1.2-1.2,1.7c-0.5,0.5-1.1,0.9-1.8,1.1C68,25,67.2,25.1,66.4,25.1L66.4,25.1z M66.5,22.1
		c0.3,0,0.6-0.1,0.9-0.2c0.3-0.1,0.5-0.3,0.7-0.5c0.2-0.2,0.3-0.4,0.4-0.7c0.1-0.3,0.1-0.6,0.1-0.8v0c0-0.3-0.1-0.6-0.2-0.9
		c-0.1-0.3-0.3-0.5-0.4-0.7s-0.4-0.4-0.7-0.5c-0.3-0.1-0.5-0.2-0.9-0.2c-0.3,0-0.6,0.1-0.9,0.2c-0.3,0.1-0.5,0.3-0.7,0.5
		c-0.2,0.2-0.3,0.4-0.4,0.7c-0.1,0.3-0.1,0.6-0.1,0.8v0c0,0.3,0.1,0.6,0.2,0.9c0.1,0.3,0.3,0.5,0.4,0.7c0.2,0.2,0.4,0.4,0.7,0.5
		C65.9,22.1,66.2,22.1,66.5,22.1L66.5,22.1z M56.1,11.4h3.7V14h-3.7V11.4z M56.2,14.9h3.5v10h-3.5V14.9L56.2,14.9z M44.6,14.9h3.5
		v1.4c0.2-0.2,0.3-0.4,0.5-0.6c0.2-0.2,0.4-0.4,0.7-0.5c0.2-0.1,0.5-0.3,0.8-0.4c0.3-0.1,0.6-0.1,1-0.1c1.1,0,1.9,0.3,2.5,1
		c0.6,0.7,0.9,1.6,0.9,2.7v6.5H51v-5.4c0-0.6-0.1-1-0.4-1.3c-0.3-0.3-0.6-0.4-1-0.4c-0.4,0-0.8,0.1-1.1,0.4
		c-0.3,0.3-0.4,0.7-0.4,1.3v5.4h-3.5L44.6,14.9L44.6,14.9z M117,11.8h1.4v8.6l5.2-5.4h1.8l-4,4.1l4.2,5.4h-1.7l-3.4-4.4l-1.9,2v2.5
		H117L117,11.8L117,11.8z M106.6,15.1h1.4v1.7c0.3-0.5,0.7-1,1.3-1.3c0.5-0.4,1.2-0.5,2-0.5c0.6,0,1.1,0.1,1.5,0.3
		c0.4,0.2,0.8,0.4,1.1,0.8c0.3,0.3,0.6,0.7,0.7,1.2c0.2,0.5,0.2,1,0.2,1.5v5.9h-1.4v-5.6c0-0.9-0.2-1.6-0.7-2.1
		c-0.5-0.5-1.1-0.8-2-0.8c-0.4,0-0.8,0.1-1.1,0.2c-0.4,0.1-0.7,0.3-0.9,0.6c-0.3,0.3-0.5,0.6-0.6,1c-0.1,0.4-0.2,0.8-0.2,1.2v5.5
		h-1.4L106.6,15.1L106.6,15.1z M99.9,24.8c-0.4,0-0.9-0.1-1.3-0.2s-0.8-0.3-1.2-0.6c-0.3-0.2-0.6-0.6-0.8-0.9
		c-0.2-0.4-0.3-0.8-0.3-1.3v0c0-0.5,0.1-1,0.3-1.4c0.2-0.4,0.5-0.7,0.8-1c0.4-0.3,0.8-0.5,1.3-0.6c0.5-0.1,1.1-0.2,1.7-0.2
		c0.6,0,1.2,0,1.6,0.1c0.5,0.1,0.9,0.2,1.3,0.3v-0.3c0-0.8-0.2-1.5-0.7-1.9c-0.5-0.4-1.2-0.7-2.1-0.7c-0.6,0-1.1,0.1-1.5,0.2
		c-0.5,0.1-0.9,0.3-1.4,0.5l-0.4-1.2c0.5-0.2,1.1-0.4,1.6-0.6c0.5-0.1,1.2-0.2,1.9-0.2c1.4,0,2.4,0.4,3.1,1.1c0.7,0.7,1,1.6,1,2.8
		v5.8h-1.4v-1.4c-0.3,0.4-0.8,0.8-1.3,1.1C101.4,24.7,100.7,24.8,99.9,24.8L99.9,24.8z M100.2,23.7c0.4,0,0.9-0.1,1.2-0.2
		c0.4-0.1,0.7-0.3,1-0.5c0.3-0.2,0.5-0.5,0.7-0.8c0.2-0.3,0.2-0.7,0.2-1v-0.9c-0.4-0.1-0.8-0.2-1.2-0.3c-0.5-0.1-1-0.1-1.6-0.1
		c-0.9,0-1.6,0.2-2.1,0.5c-0.5,0.4-0.7,0.8-0.7,1.4v0c0,0.3,0.1,0.6,0.2,0.8s0.3,0.4,0.5,0.6c0.2,0.2,0.5,0.3,0.8,0.4
		C99.5,23.6,99.8,23.7,100.2,23.7L100.2,23.7z M84.7,11.7h5.5c0.7,0,1.4,0.1,2,0.3c0.6,0.2,1,0.5,1.4,0.8c0.6,0.6,0.8,1.3,0.8,2.1v0
		c0,0.4-0.1,0.8-0.2,1.1c-0.1,0.3-0.3,0.6-0.5,0.9c-0.2,0.2-0.4,0.4-0.7,0.6c-0.2,0.2-0.5,0.3-0.8,0.4c0.4,0.1,0.7,0.3,1.1,0.4
		c0.3,0.2,0.6,0.4,0.9,0.6c0.2,0.2,0.4,0.5,0.6,0.9c0.1,0.3,0.2,0.7,0.2,1.2v0c0,0.6-0.1,1-0.3,1.5c-0.2,0.4-0.5,0.8-1,1.1
		c-0.4,0.3-0.9,0.5-1.5,0.7c-0.6,0.2-1.2,0.2-1.9,0.2h-5.8C84.7,24.6,84.7,11.7,84.7,11.7z M90,17.5c0.9,0,1.6-0.2,2.2-0.6
		c0.5-0.4,0.8-1,0.8-1.7v0c0-0.6-0.2-1.1-0.7-1.5C91.7,13.2,91,13,90.1,13h-3.9v4.4L90,17.5L90,17.5z M90.5,23.3
		c1,0,1.8-0.2,2.3-0.6c0.6-0.4,0.9-1,0.9-1.7v0c0-0.7-0.3-1.2-0.9-1.6c-0.6-0.4-1.4-0.6-2.6-0.6h-4.1v4.6L90.5,23.3L90.5,23.3z"/>
	<path class="st0" d="M117,11.8h1.4v8.6l5.2-5.4h1.8l-4,4.1l4.2,5.4h-1.7l-3.4-4.4l-1.9,2v2.5H117L117,11.8L117,11.8z M106.6,15.1
		h1.4v1.7c0.3-0.5,0.7-1,1.3-1.3c0.5-0.4,1.2-0.5,2-0.5c0.6,0,1.1,0.1,1.5,0.3c0.4,0.2,0.8,0.4,1.1,0.8c0.3,0.3,0.6,0.7,0.7,1.2
		c0.2,0.5,0.2,1,0.2,1.5v5.9h-1.4v-5.6c0-0.9-0.2-1.6-0.7-2.1c-0.5-0.5-1.1-0.8-2-0.8c-0.4,0-0.8,0.1-1.1,0.2
		c-0.4,0.1-0.7,0.3-0.9,0.6c-0.3,0.3-0.5,0.6-0.6,1c-0.1,0.4-0.2,0.8-0.2,1.2v5.5h-1.4L106.6,15.1L106.6,15.1z M99.9,24.8
		c-0.4,0-0.9-0.1-1.3-0.2s-0.8-0.3-1.2-0.6c-0.3-0.2-0.6-0.6-0.8-0.9c-0.2-0.4-0.3-0.8-0.3-1.3v0c0-0.5,0.1-1,0.3-1.4
		c0.2-0.4,0.5-0.7,0.8-1c0.4-0.3,0.8-0.5,1.3-0.6c0.5-0.1,1.1-0.2,1.7-0.2c0.6,0,1.2,0,1.6,0.1c0.5,0.1,0.9,0.2,1.3,0.3v-0.3
		c0-0.8-0.2-1.5-0.7-1.9c-0.5-0.4-1.2-0.7-2.1-0.7c-0.6,0-1.1,0.1-1.5,0.2c-0.5,0.1-0.9,0.3-1.4,0.5l-0.4-1.2
		c0.5-0.2,1.1-0.4,1.6-0.6c0.5-0.1,1.2-0.2,1.9-0.2c1.4,0,2.4,0.4,3.1,1.1c0.7,0.7,1,1.6,1,2.8v5.8h-1.4v-1.4
		c-0.3,0.4-0.8,0.8-1.3,1.1C101.4,24.7,100.7,24.8,99.9,24.8L99.9,24.8z M100.2,23.7c0.4,0,0.9-0.1,1.2-0.2c0.4-0.1,0.7-0.3,1-0.5
		c0.3-0.2,0.5-0.5,0.7-0.8c0.2-0.3,0.2-0.7,0.2-1v-0.9c-0.4-0.1-0.8-0.2-1.2-0.3c-0.5-0.1-1-0.1-1.6-0.1c-0.9,0-1.6,0.2-2.1,0.5
		c-0.5,0.4-0.7,0.8-0.7,1.4v0c0,0.3,0.1,0.6,0.2,0.8s0.3,0.4,0.5,0.6c0.2,0.2,0.5,0.3,0.8,0.4C99.5,23.6,99.8,23.7,100.2,23.7
		L100.2,23.7z M84.7,11.7h5.5c0.7,0,1.4,0.1,2,0.3c0.6,0.2,1,0.5,1.4,0.8c0.6,0.6,0.8,1.3,0.8,2.1v0c0,0.4-0.1,0.8-0.2,1.1
		c-0.1,0.3-0.3,0.6-0.5,0.9c-0.2,0.2-0.4,0.4-0.7,0.6c-0.2,0.2-0.5,0.3-0.8,0.4c0.4,0.1,0.7,0.3,1.1,0.4c0.3,0.2,0.6,0.4,0.9,0.6
		c0.2,0.2,0.4,0.5,0.6,0.9c0.1,0.3,0.2,0.7,0.2,1.2v0c0,0.6-0.1,1-0.3,1.5c-0.2,0.4-0.5,0.8-1,1.1c-0.4,0.3-0.9,0.5-1.5,0.7
		c-0.6,0.2-1.2,0.2-1.9,0.2h-5.8C84.7,24.6,84.7,11.7,84.7,11.7z M90,17.5c0.9,0,1.6-0.2,2.2-0.6c0.5-0.4,0.8-1,0.8-1.7v0
		c0-0.6-0.2-1.1-0.7-1.5C91.7,13.2,91,13,90.1,13h-3.9v4.4L90,17.5L90,17.5z M90.5,23.3c1,0,1.8-0.2,2.3-0.6c0.6-0.4,0.9-1,0.9-1.7
		v0c0-0.7-0.3-1.2-0.9-1.6c-0.6-0.4-1.4-0.6-2.6-0.6h-4.1v4.6L90.5,23.3L90.5,23.3z M0,0.2c2.6,0,9.6,0.7,9.6,9.1v11.5
		c0,1.4,0.1,3.3,1.2,4.4c-1.9,2.6-5.4,2.3-7.5,0.6C0.9,24,0,21.2,0,18.3V0.2z M12.5,15.7c0-6.6,6.1-8.2,9.6-8.2v10.6
		c0,7.4-7.7,11-14,9.7c1.5-0.5,4.4-1.8,4.4-6.4V15.7L12.5,15.7z"/>
</g>
</svg>
