<?xml version="1.0" encoding="utf-8"?>
<!-- Generator: Adobe Illustrator 21.0.0, SVG Export Plug-In . SVG Version: 6.00 Build 0)  -->
<svg width="70" height="18" version="1.1" id="Layer_1" xmlns="http://www.w3.org/2000/svg" xmlns:xlink="http://www.w3.org/1999/xlink" x="0px" y="0px"
	 viewBox="0 0 70 18" style="enable-background:new 0 0 70 18;" xml:space="preserve">
<style type="text/css">
	.st0{fill:#858585;}
</style>
<title>us_bank_correctcolors copy</title>
<g>
	<polygon class="st0" points="0,0 0,0 0,0 	"/>
	<path class="st0" d="M0,0L0,14l11.8,4l11.8-4V0H0z M8.2,13.5v-1.2h0c-0.7,1-1.7,1.5-3.2,1.5c-1.8,0-3.4-1.1-3.4-3.3V3.7h3.7v5.1
		c0,1.1,0.1,1.9,1.2,1.9c0.6,0,1.5-0.3,1.5-1.9V3.7h3.7v9.8H8.2z M17.5,13.8c-2.3,0-4.8-0.9-4.9-3.5h3.6c0,0.3,0.2,0.6,0.5,0.9
		c0.2,0.2,0.5,0.3,1,0.3c0.5,0,1.3-0.2,1.3-0.8c0-0.6-0.3-0.7-2.1-1c-2.9-0.5-4-1.4-4-3.1c0-2.5,2.7-3.1,4.6-3.1
		c2.1,0,4.7,0.6,4.8,3.1h-3.4v0c0-0.3-0.2-0.6-0.4-0.7c-0.2-0.2-0.5-0.3-0.8-0.3c-0.5,0-1.1,0.1-1.1,0.8c0,0.3,0.2,0.4,0.4,0.5
		c0.6,0.3,2,0.3,3.3,0.8c1.2,0.4,2.3,1.1,2.3,2.7C22.4,13.1,19.8,13.8,17.5,13.8z"/>
</g>
<path class="st0" d="M30.2,6.2c-1.3,0-1.6,1.3-1.6,2.4c0,1.2,0.3,2.4,1.6,2.4c1.3,0,1.6-1.3,1.6-2.4C31.9,7.5,31.6,6.2,30.2,6.2
	 M25,0h3.7v4.8h0c0.6-0.8,1.6-1.3,2.7-1.3c3.3,0,4.2,2.8,4.2,5.1c0,2.5-1.3,5.2-4.1,5.2c-1.8,0-2.4-0.7-2.9-1.3h0v1.1H25L25,0
	 M42.4,9.1c-0.5,0.2-1,0.4-1.5,0.5c-0.8,0.2-1.3,0.4-1.3,1.1c0,0.5,0.5,0.9,1.2,0.9c0.9,0,1.5-0.5,1.6-1.5V9.1L42.4,9.1z M46,11.4
	c0,0.7,0,1.6,0.5,2.2h-3.8c-0.1-0.3-0.2-0.7-0.1-0.9h0c-0.8,0.9-1.9,1.2-3.2,1.2c-1.9,0-3.5-0.9-3.5-3c0-3.1,3.6-3,5.5-3.3
	c0.5-0.1,1-0.2,1-0.9c0-0.7-0.6-0.9-1.2-0.9c-1.2,0-1.4,0.6-1.4,1h-3.5c0.1-2.8,2.7-3.2,5-3.2c4.7,0,4.7,1.9,4.7,3.8L46,11.4
	L46,11.4z M47.4,3.7H51V5h0c0.7-1,1.7-1.5,3.2-1.5c1.8,0,3.4,1.1,3.4,3.3v6.7h-3.7V8.4c0-1.1-0.1-1.9-1.2-1.9
	c-0.6,0-1.5,0.3-1.5,1.9v5.2h-3.7L47.4,3.7 M58.9,0h3.7v6.5L65,3.7h4.2l-3.5,3.7l4,6.1h-4.5l-2-3.6l-0.7,0.7v2.8h-3.7L58.9,0"/>
</svg>
