<svg width="70" height="18" viewBox="0 0 70 18" xmlns="http://www.w3.org/2000/svg"><title>us_bank_correctcolors</title><g fill="none" fill-rule="evenodd"><path d="M0 .042l.012 13.94L11.82 18l11.807-4.017V.043H0" fill="#C52C41"/><path d="M11.8 13.545H8.19v-1.248h-.036c-.7.983-1.702 1.493-3.195 1.493-1.758 0-3.365-1.076-3.365-3.325v-6.73h3.74v5.14c0 1.136.135 1.93 1.23 1.93.643 0 1.494-.322 1.494-1.89v-5.18h3.74v9.81M18.776 6.59c-.018-.32-.19-.567-.436-.738-.225-.188-.528-.283-.83-.283-.53 0-1.135.113-1.135.755 0 .284.228.415.435.51.624.265 2.042.34 3.29.756 1.247.398 2.343 1.136 2.343 2.742 0 2.72-2.61 3.458-4.99 3.458-2.306 0-4.838-.926-4.895-3.458h3.572c.02.34.17.624.453.87.19.17.548.283 1.002.283.492 0 1.267-.19 1.267-.756 0-.57-.322-.738-2.06-1.04-2.854-.492-4.007-1.4-4.007-3.08 0-2.477 2.665-3.12 4.63-3.12 2.117 0 4.668.586 4.763 3.1h-3.402" fill="#FFF"/><path d="M30.21 6.212c-1.34 0-1.643 1.265-1.643 2.42 0 1.17.303 2.438 1.644 2.438 1.343 0 1.645-1.267 1.645-2.44 0-1.153-.302-2.418-1.644-2.418M24.958.05H28.7V4.81h.037c.567-.83 1.57-1.322 2.684-1.322 3.29 0 4.178 2.797 4.178 5.103 0 2.457-1.34 5.197-4.12 5.197-1.834 0-2.4-.7-2.873-1.323h-.038v1.078h-3.61V.05M42.44 9.142c-.454.226-.963.358-1.474.472-.83.19-1.266.397-1.266 1.058 0 .454.49.907 1.17.907.854 0 1.513-.51 1.57-1.53V9.14zm3.592 2.21c0 .737.036 1.57.454 2.193h-3.82c-.093-.265-.15-.66-.13-.926h-.038c-.795.906-1.948 1.17-3.157 1.17-1.89 0-3.458-.906-3.458-2.968 0-3.097 3.63-2.985 5.54-3.345.508-.094 1.02-.244 1.02-.868 0-.663-.626-.91-1.23-.91-1.153 0-1.38.587-1.4 1.002h-3.476c.114-2.758 2.722-3.21 5.045-3.21 4.688 0 4.652 1.944 4.652 3.835v4.025zM47.372 3.737h3.61v1.246h.037c.7-.982 1.7-1.492 3.193-1.492 1.757 0 3.365 1.077 3.365 3.326v6.73h-3.743v-5.14c0-1.136-.132-1.93-1.227-1.93-.643 0-1.494.32-1.494 1.89v5.18h-3.742v-9.81M58.902.05h3.74v6.52l2.384-2.833h4.232L65.762 7.44l4.045 6.105H65.31l-2.005-3.553-.663.717v2.835h-3.74V.05" fill="#202652"/></g></svg>