<svg width="67" height="27" viewBox="0 0 67 27" xmlns="http://www.w3.org/2000/svg"><title>Group Copy</title><g fill="#BD1924" fill-rule="evenodd"><path d="M13.44 19.724c0-.783-.136-1.476-.44-2.036-.372-.6-1.132-.692-2.44-.692H7.816v3.042h.867c1.39 0 1.604-.237 1.604-1.81h1.02v5.083l-1.042-.02c-.023-1.7-.214-2.05-1.582-2.05h-.867v2.65c0 .848.145.93 1.095.93h1.278v1.142H3.424V24.82l.632-.02c.95 0 1.276-.083 1.276-.93v-6.006c0-.84-.326-.93-1.276-.93h-.632v-1.14h11.28v3.93H13.44M19.94 25.962V24.82h1.184c.632 0 .936-.062.936-.41 0-.127-.077-.302-.168-.492l-.464-1.187H17.15l-.555 1.274c-.09.195-.137.342-.137.475 0 .32.296.34.88.34h1.142v1.142h-5.723V24.82h.5c.86 0 1.12-.28 1.446-.993l3.67-8.033h2.69l3.512 8.033c.32.778.676.993 1.3.993h.53v1.142H19.94zm-.602-8.336l-1.648 3.9h3.32l-1.672-3.9z"/><path d="M38.8 23.59c0 1.853-.926 2.587-2.248 2.587-1.512 0-2.49-.384-2.56-1.79l-.045-1.182c-.07-1.705-.656-2.048-2.556-2.048h-1.115v2.734c0 .848.137.93 1.093.93h.997v1.142H25.67V24.82h.972c.63 0 1.147-.21 1.147-.95v-6.006c0-.84-.145-.93-1.095-.93h-.904v-1.14h7.547c2.82 0 4.12.777 4.12 2.413 0 1.467-1.232 2.37-3.328 2.628 1.952.434 2.21 1.077 2.324 2.455.023.133 0 .413 0 .628.046.602.303.882.63.86.67-.04.722-.495.67-1.705H38.8c.024.175.024.35.024.518H38.8m-3.874-5.103c0-1.183-.744-1.532-2.302-1.532h-2.35v3.083l2.395-.02c1.534 0 2.256-.455 2.256-1.51v-.02M48.575 19.052c-.525-1.525-1.625-2.238-3.44-2.238-1.79 0-3.21 1.357-3.187 3.944 0 2.63 1.14 4.05 3.186 4.07 1.49 0 2.81-.685 2.81-1.854v-.558c0-.685-.182-.685-1.23-.685h-.548v-1.167h5.1v1.168h-.418c-.79 0-.912-.07-.912.798v3.405h-.897l-.58-.846c-1 .735-2.438 1.077-3.723 1.077-1.503 0-2.79-.49-3.807-1.44-1.07-1.015-1.694-2.37-1.672-3.966 0-1.573.555-2.824 1.65-3.832.95-.867 2.392-1.356 3.883-1.336 1.232 0 2.67.3 3.482 1.1l.562-1.057h.874v3.412l-1.133.007M58.614 26.15c-3.647 0-6.474-2.112-6.474-5.315 0-3.188 2.827-5.272 6.45-5.272 3.644 0 6.402 2.084 6.402 5.293 0 3.182-2.758 5.294-6.378 5.294m3.69-5.272c0-2.67-1.575-4.064-3.735-4.064-2.136 0-3.763 1.393-3.763 4.064 0 2.664 1.627 4.09 3.762 4.09 2.127 0 3.71-1.426 3.71-4.09h.023M19.343 2.304c-.904 0-1.208.322-1.582 1.252l-3.136 7.775h-1.977L10.14 5.69 7.744 11.33H5.7L2.427 3.68C2.052 2.8 1.5 2.305.684 2.305H.427v-1.14h5.58v1.14h-.542c-.623 0-.904.153-.88.475 0 .062-.024.174.044.32 0 0 1.276 2.79 2.287 5.546.106.014.15.014.15.014l2.19-5.083c-.09-.84-.394-1.273-1.344-1.273h-.745v-1.14h5.875v1.14h-.928c-.554 0-.767.112-.767.413 0 .125.023.28.092.426 0 0 1.322 2.957 2.286 5.532.13 0 .13.006.13.006l2.12-5.145c.137-.343.137-.602.137-.777 0-.322-.304-.454-.927-.454h-.767v-1.14h5.34v1.14h-.417z"/><path d="M18.872 11.33v-1.138l.646-.022c.958 0 1.49-.084 1.49-.93V3.234c0-.84-.532-.93-1.49-.93h-.646v-1.14H30.72v3.944h-1.253c-.07-2.37-.67-2.742-2.904-2.742h-3.07v3.02h.79c1.398 0 1.58-.432 1.695-1.963h1.262v5.153h-1.285c-.09-1.747-.274-1.987-1.65-1.987h-.813v3.54h3.534c2 0 2.478-.875 2.653-2.897h1.253v4.098h-12.06zM31.9 11.33v-1.138h.63c.95 0 1.367-.084 1.367-.952l-.023-5.985c0-.86-.554-.95-1.49-.95h-.577v-1.14h6.62v1.14l-.79.02c-1.066 0-1.255.09-1.255.93v6.874h2.676c1.3 0 2.067-.156 2.416-.757.327-.538.464-1.147.464-2.14h1.276v4.098H31.9zM44.18 11.33v-1.138h.167c.957 0 1.375-.084 1.375-.952L45.7 3.255c0-.86-.448-.95-1.376-.95h-.7v-1.14h6.63v1.14l-.79.02c-1.075 0-1.255.09-1.255.93v6.874h2.666c1.306 0 2.074-.156 2.423-.757.32-.538.462-1.147.462-2.14h1.277v4.098H44.18zM66.272 8.36c0 2.328-1.975 3.166-4.9 3.166-1.764 0-3.46-.93-3.833-1.25l-.372 1.062H56.05v-4.09h1.277c.35 1.95 1.763 2.796 3.777 2.88 1.734.07 2.964-.357 3.102-1.468.16-1.287-1.368-1.202-2.645-1.42l-1.885-.32c-2.81-.455-3.716-1.21-3.784-2.91-.075-1.853 1.74-3.062 4.182-3.083 1.186 0 2.72.174 3.905 1.056l.555-.84h.973v3.552h-1.23c-.268-1.97-2.364-2.572-4.157-2.53-1.302.04-2.16.733-2.16 1.55 0 .764.813.86 1.847 1.028l2.302.372c2.35.363 4.165.81 4.165 3.223v.02"/></g></svg>