<svg width="67" height="27" version="1.1" id="Layer_1" xmlns="http://www.w3.org/2000/svg" xmlns:xlink="http://www.w3.org/1999/xlink" x="0px" y="0px"
	 viewBox="0 0 67 27" style="enable-background:new 0 0 67 27;" xml:space="preserve">
<style type="text/css">
	.st0{fill:#858585;}
</style>
<title>wellsFargo</title>
<g>
	<path class="st0" d="M13.4,19.7c0-0.8-0.1-1.5-0.4-2c-0.4-0.6-1.1-0.7-2.4-0.7H7.8v3h0.9c1.4,0,1.6-0.2,1.6-1.8h1v5.1l-1,0
		c0-1.7-0.2-2-1.6-2H7.8v2.6c0,0.8,0.1,0.9,1.1,0.9h1.3V26H3.4v-1.1l0.6,0c0.9,0,1.3-0.1,1.3-0.9v-6c0-0.8-0.3-0.9-1.3-0.9H3.4v-1.1
		h11.3v3.9L13.4,19.7 M19.9,26v-1.1h1.2c0.6,0,0.9-0.1,0.9-0.4c0-0.1-0.1-0.3-0.2-0.5l-0.5-1.2h-4.3L16.6,24
		c-0.1,0.2-0.1,0.3-0.1,0.5c0,0.3,0.3,0.3,0.9,0.3h1.1V26h-5.7v-1.1h0.5c0.9,0,1.1-0.3,1.4-1l3.7-8h2.7l3.5,8c0.3,0.8,0.7,1,1.3,1
		h0.5V26H19.9z M19.3,17.6l-1.6,3.9H21C21,21.5,19.3,17.6,19.3,17.6z"/>
	<path class="st0" d="M38.8,23.6c0,1.9-0.9,2.6-2.2,2.6c-1.5,0-2.5-0.4-2.6-1.8l0-1.2c-0.1-1.7-0.7-2-2.6-2h-1.1v2.7
		c0,0.8,0.1,0.9,1.1,0.9h1V26h-6.7v-1.1h1c0.6,0,1.1-0.2,1.1-1v-6c0-0.8-0.1-0.9-1.1-0.9h-0.9v-1.1h7.5c2.8,0,4.1,0.8,4.1,2.4
		c0,1.5-1.2,2.4-3.3,2.6c2,0.4,2.2,1.1,2.3,2.5c0,0.1,0,0.4,0,0.6c0,0.6,0.3,0.9,0.6,0.9c0.7,0,0.7-0.5,0.7-1.7h1
		C38.8,23.2,38.8,23.4,38.8,23.6L38.8,23.6 M34.9,18.5c0-1.2-0.7-1.5-2.3-1.5h-2.4V20l2.4,0C34.2,20,34.9,19.6,34.9,18.5L34.9,18.5
		 M48.6,19.1c-0.5-1.5-1.6-2.2-3.4-2.2c-1.8,0-3.2,1.4-3.2,3.9c0,2.6,1.1,4,3.2,4.1c1.5,0,2.8-0.7,2.8-1.9v-0.6
		c0-0.7-0.2-0.7-1.2-0.7h-0.5v-1.2h5.1v1.2h-0.4c-0.8,0-0.9-0.1-0.9,0.8v3.4H49l-0.6-0.8c-1,0.7-2.4,1.1-3.7,1.1
		c-1.5,0-2.8-0.5-3.8-1.4c-1.1-1-1.7-2.4-1.7-4c0-1.6,0.6-2.8,1.7-3.8c1-0.9,2.4-1.4,3.9-1.3c1.2,0,2.7,0.3,3.5,1.1l0.6-1.1h0.9V19
		L48.6,19.1 M58.6,26.1c-3.6,0-6.5-2.1-6.5-5.3c0-3.2,2.8-5.3,6.5-5.3c3.6,0,6.4,2.1,6.4,5.3C65,24,62.2,26.1,58.6,26.1 M62.3,20.9
		c0-2.7-1.6-4.1-3.7-4.1c-2.1,0-3.8,1.4-3.8,4.1c0,2.7,1.6,4.1,3.8,4.1C60.7,25,62.3,23.5,62.3,20.9L62.3,20.9 M19.3,2.3
		c-0.9,0-1.2,0.3-1.6,1.3l-3.1,7.8h-2l-2.5-5.6l-2.4,5.6h-2L2.4,3.7C2.1,2.8,1.5,2.3,0.7,2.3H0.4V1.2H6v1.1H5.5
		c-0.6,0-0.9,0.2-0.9,0.5c0,0.1,0,0.2,0,0.3c0,0,1.3,2.8,2.3,5.5c0.1,0,0.2,0,0.2,0l2.2-5.1C9.2,2.7,8.9,2.3,7.9,2.3H7.2V1.2H13v1.1
		h-0.9c-0.6,0-0.8,0.1-0.8,0.4c0,0.1,0,0.3,0.1,0.4c0,0,1.3,3,2.3,5.5c0.1,0,0.1,0,0.1,0L16,3.5c0.1-0.3,0.1-0.6,0.1-0.8
		c0-0.3-0.3-0.5-0.9-0.5h-0.8V1.2h5.3v1.1L19.3,2.3L19.3,2.3z"/>
	<path class="st0" d="M18.9,11.3v-1.1l0.6,0c1,0,1.5-0.1,1.5-0.9v-6c0-0.8-0.5-0.9-1.5-0.9h-0.6V1.2h11.8v3.9h-1.3
		c-0.1-2.4-0.7-2.7-2.9-2.7h-3.1v3h0.8c1.4,0,1.6-0.4,1.7-2h1.3v5.2H26c-0.1-1.7-0.3-2-1.6-2h-0.8v3.5H27c2,0,2.5-0.9,2.7-2.9h1.3
		v4.1C30.9,11.3,18.9,11.3,18.9,11.3z M31.9,11.3v-1.1h0.6c1,0,1.4-0.1,1.4-1l0-6c0-0.9-0.6-1-1.5-1h-0.6V1.2h6.6v1.1l-0.8,0
		c-1.1,0-1.3,0.1-1.3,0.9v6.9h2.7c1.3,0,2.1-0.2,2.4-0.8c0.3-0.5,0.5-1.1,0.5-2.1h1.3v4.1H31.9z M44.2,11.3v-1.1h0.2
		c1,0,1.4-0.1,1.4-1l0-6c0-0.9-0.4-1-1.4-1h-0.7V1.2h6.6v1.1l-0.8,0c-1.1,0-1.3,0.1-1.3,0.9v6.9h2.7c1.3,0,2.1-0.2,2.4-0.8
		c0.3-0.5,0.5-1.1,0.5-2.1H55v4.1H44.2z M66.3,8.4c0,2.3-2,3.2-4.9,3.2c-1.8,0-3.5-0.9-3.8-1.2l-0.4,1.1H56V7.2h1.3
		c0.3,1.9,1.8,2.8,3.8,2.9c1.7,0.1,3-0.4,3.1-1.5c0.2-1.3-1.4-1.2-2.6-1.4l-1.9-0.3C56.9,6.5,56,5.7,55.9,4
		c-0.1-1.9,1.7-3.1,4.2-3.1c1.2,0,2.7,0.2,3.9,1.1l0.6-0.8h1v3.6h-1.2c-0.3-2-2.4-2.6-4.2-2.5c-1.3,0-2.2,0.7-2.2,1.5
		c0,0.8,0.8,0.9,1.8,1l2.3,0.4C64.5,5.5,66.3,5.9,66.3,8.4L66.3,8.4"/>
</g>
</svg>
