<svg width="85" height="16" viewBox="0 0 85 16" xmlns="http://www.w3.org/2000/svg" xmlns:xlink="http://www.w3.org/1999/xlink"><title>Page 1 Copy 3</title><defs><path id="a" d="M0 .025h84.988V15.74H0"/></defs><g fill="none" fill-rule="evenodd"><path d="M40.45 13.91c.447-.698.84-1.337 1.267-1.954.07-.1.29-.136.44-.137 2.002-.01 4.003-.006 6.004-.007 1.01 0 1.234-.225 1.236-1.234v-.715c-.008-.825-.23-1.052-1.045-1.053-1.623-.003-3.247.025-4.87-.017-.5-.013-1.028-.14-1.488-.34-.722-.317-1.128-.957-1.306-1.708-.22-.923-.23-1.865-.018-2.79.26-1.143 1.16-1.922 2.334-2.037.583-.057 1.173-.048 1.76-.05 2.113-.005 4.226-.003 6.34-.004.095 0 .19.01.378.02-.307.487-.624.908-.852 1.373-.27.55-.653.7-1.254.686-1.79-.042-3.582-.015-5.373-.013-.783.002-.998.216-1.006.993-.003.28-.006.56.003.84.02.622.257.863.878.866 1.525.008 3.05 0 4.575.007.32 0 .645.017.962.06 1.306.184 2.178.947 2.355 2.252.117.862.125 1.77-.002 2.628-.216 1.466-1.28 2.294-2.945 2.32-2.755.04-5.512.01-8.37.01M56.544 3.933v2.752h6.58v2.03h-6.56v3.098h.49c1.987 0 3.974.005 5.96-.005.268-.002.436.067.577.307.346.586.722 1.153 1.117 1.777H54.11v-.45c0-3.71.002-7.417-.007-11.125 0-.31.054-.445.407-.444 3.26.013 6.52.007 9.782.01.095 0 .19.015.37.03-.432.675-.825 1.312-1.25 1.927-.06.086-.276.09-.42.09-1.987.005-3.974.003-5.96.003h-.488zM15.205 6.63h6.685v-.687c0-1.217.007-2.435-.006-3.652-.003-.296.065-.427.393-.416.653.023 1.307.007 1.986.007v12.015h-2.365V8.76h-6.672v5.132H12.85V1.914h2.355V6.63zM34.736 9.37c-.73-1.67-1.442-3.295-2.196-5.015-.75 1.727-1.457 3.354-2.18 5.014h4.376zm-9.067 4.55c.088-.21.147-.364.217-.512 1.76-3.716 3.524-7.43 5.275-11.15.132-.28.283-.4.6-.385.557.026 1.12-.01 1.678.02.143.007.35.123.41.246 1.852 3.87 3.69 7.75 5.53 11.63.012.023.008.054.017.143-.848 0-1.69.007-2.532-.012-.078 0-.175-.16-.223-.264-.292-.635-.582-1.272-.85-1.917-.097-.23-.228-.308-.474-.307-1.847.01-3.695.01-5.543 0-.247 0-.376.077-.472.306-.27.644-.553 1.285-.86 1.913-.06.127-.25.27-.384.273-.77.026-1.54.013-2.39.013zM11.37 13.912c-2.684 0-5.273.047-7.86-.015-2.15-.05-3.463-1.454-3.493-3.607-.022-1.608-.023-3.218 0-4.826C.047 3.37 1.29 1.99 3.37 1.92c2.6-.088 5.203-.035 7.805-.04.038 0 .076.025.164.056-.42.66-.82 1.31-1.25 1.94-.063.092-.27.117-.41.118C7.973 4 6.266 4 4.56 4c-.126 0-.252 0-.378.003-1.18.027-1.658.492-1.67 1.67-.013 1.453-.012 2.91 0 4.364.01 1.192.492 1.68 1.695 1.69 1.75.017 3.498.02 5.246-.005.406-.006.633.122.828.467.323.566.696 1.104 1.09 1.722" fill="#000"/><g><mask id="b" fill="#fff"><use xlink:href="#a"/></mask><path d="M84.48 4.4h-.417c-3.033 0-6.066-.008-9.1.007-.396.002-.535-.102-.524-.514.026-1.034.007-2.068.01-3.103 0-.58.17-.76.736-.76C76.654.024 78.12.02 79.59.034c.177.002.4.064.525.18 1.42 1.326 2.825 2.668 4.233 4.006.037.036.062.084.13.18" fill="#4C79C8" mask="url(#b)"/></g><path d="M80.692 15.188c-.01-.178-.02-.298-.02-.42 0-3.037.006-6.074-.01-9.11-.002-.41.123-.527.524-.517 1.022.026 2.044.008 3.066.01.59 0 .73.132.732.704.004 1.498.01 2.996-.01 4.493 0 .203-.084.453-.22.598-1.27 1.362-2.557 2.705-3.84 4.053-.054.057-.12.102-.222.19M69.932 11.426h9.435c.55 0 .552.003.552.56 0 1.007.002 2.014-.002 3.02-.002.55-.182.73-.727.732-1.495.003-2.99.006-4.486-.006-.165-.002-.372-.06-.488-.17-1.386-1.3-2.76-2.615-4.134-3.927-.038-.036-.062-.086-.15-.21M73.617.65c.01.19.023.322.023.456.002 2.994-.007 5.988.01 8.982.003.423-.117.557-.544.545-1.035-.03-2.07-.006-3.106-.01-.518-.004-.667-.158-.668-.684-.003-1.498-.007-2.995.006-4.492.002-.178.062-.402.18-.526 1.29-1.38 2.595-2.744 3.897-4.11.045-.048.102-.083.202-.163" fill="#4C79C8"/></g></svg>