<?xml version="1.0" encoding="utf-8"?>
<!-- Generator: Adobe Illustrator 21.0.0, SVG Export Plug-In . SVG Version: 6.00 Build 0)  -->
<svg width="85" height="16" version="1.1" id="Layer_1" xmlns="http://www.w3.org/2000/svg" xmlns:xlink="http://www.w3.org/1999/xlink" x="0px" y="0px"
	 viewBox="0 0 85 16" style="enable-background:new 0 0 85 16;" xml:space="preserve">
<style type="text/css">
	.st0{fill:#858585;}
</style>
<title>chase</title>
<g>
	<path class="st0" d="M40.5,13.9c0.4-0.7,0.8-1.3,1.3-2c0.1-0.1,0.3-0.1,0.4-0.1c2,0,4,0,6,0c1,0,1.2-0.2,1.2-1.2V9.9
		c0-0.8-0.2-1.1-1-1.1c-1.6,0-3.2,0-4.9,0c-0.5,0-1-0.1-1.5-0.3c-0.7-0.3-1.1-1-1.3-1.7c-0.2-0.9-0.2-1.9,0-2.8
		c0.3-1.1,1.2-1.9,2.3-2c0.6-0.1,1.2,0,1.8,0c2.1,0,4.2,0,6.3,0c0.1,0,0.2,0,0.4,0c-0.3,0.5-0.6,0.9-0.9,1.4C50.4,3.8,50,4,49.4,3.9
		c-1.8,0-3.6,0-5.4,0c-0.8,0-1,0.2-1,1c0,0.3,0,0.6,0,0.8c0,0.6,0.3,0.9,0.9,0.9c1.5,0,3,0,4.6,0c0.3,0,0.6,0,1,0.1
		c1.3,0.2,2.2,0.9,2.4,2.3c0.1,0.9,0.1,1.8,0,2.6c-0.2,1.5-1.3,2.3-2.9,2.3C46.1,13.9,43.3,13.9,40.5,13.9L40.5,13.9z M56.5,3.9v2.8
		h6.6v2h-6.6v3.1h0.5c2,0,4,0,6,0c0.3,0,0.4,0.1,0.6,0.3c0.3,0.6,0.7,1.2,1.1,1.8H54.1v-0.4c0-3.7,0-7.4,0-11.1
		c0-0.3,0.1-0.4,0.4-0.4c3.3,0,6.5,0,9.8,0c0.1,0,0.2,0,0.4,0c-0.4,0.7-0.8,1.3-1.2,1.9c-0.1,0.1-0.3,0.1-0.4,0.1c-2,0-4,0-6,0
		C57,3.9,56.5,3.9,56.5,3.9z M15.2,6.6h6.7V5.9c0-1.2,0-2.4,0-3.7c0-0.3,0.1-0.4,0.4-0.4c0.7,0,1.3,0,2,0v12h-2.4V8.8h-6.7v5.1h-2.4
		v-12h2.4L15.2,6.6L15.2,6.6z M34.7,9.4c-0.7-1.7-1.4-3.3-2.2-5c-0.8,1.7-1.5,3.4-2.2,5L34.7,9.4L34.7,9.4z M25.7,13.9
		c0.1-0.2,0.1-0.4,0.2-0.5c1.8-3.7,3.5-7.4,5.3-11.1c0.1-0.3,0.3-0.4,0.6-0.4c0.6,0,1.1,0,1.7,0c0.1,0,0.3,0.1,0.4,0.2
		c1.9,3.9,3.7,7.7,5.5,11.6c0,0,0,0.1,0,0.1c-0.8,0-1.7,0-2.5,0c-0.1,0-0.2-0.2-0.2-0.3c-0.3-0.6-0.6-1.3-0.8-1.9
		c-0.1-0.2-0.2-0.3-0.5-0.3c-1.8,0-3.7,0-5.5,0c-0.2,0-0.4,0.1-0.5,0.3c-0.3,0.6-0.6,1.3-0.9,1.9c-0.1,0.1-0.2,0.3-0.4,0.3
		C27.3,13.9,26.5,13.9,25.7,13.9L25.7,13.9z M11.4,13.9c-2.7,0-5.3,0-7.9,0C1.4,13.8,0,12.4,0,10.3c0-1.6,0-3.2,0-4.8
		C0,3.4,1.3,2,3.4,1.9c2.6-0.1,5.2,0,7.8,0c0,0,0.1,0,0.2,0.1c-0.4,0.7-0.8,1.3-1.2,1.9C10,4,9.8,4,9.7,4C8,4,6.3,4,4.6,4
		C4.4,4,4.3,4,4.2,4C3,4,2.5,4.5,2.5,5.7c0,1.5,0,2.9,0,4.4c0,1.2,0.5,1.7,1.7,1.7c1.8,0,3.5,0,5.2,0c0.4,0,0.6,0.1,0.8,0.5
		C10.6,12.8,11,13.3,11.4,13.9L11.4,13.9z M84.1,4.4c-3,0-6.1,0-9.1,0c-0.4,0-0.5-0.1-0.5-0.5c0-1,0-2.1,0-3.1
		c0-0.6,0.2-0.8,0.7-0.8c1.5,0,2.9,0,4.4,0c0.2,0,0.4,0.1,0.5,0.2c1.4,1.3,2.8,2.7,4.2,4c0,0,0.1,0.1,0.1,0.2
		C84.5,4.4,84.1,4.4,84.1,4.4z M80.7,15.2c0-0.2,0-0.3,0-0.4c0-3,0-6.1,0-9.1c0-0.4,0.1-0.5,0.5-0.5c1,0,2,0,3.1,0
		c0.6,0,0.7,0.1,0.7,0.7c0,1.5,0,3,0,4.5c0,0.2-0.1,0.5-0.2,0.6c-1.3,1.4-2.6,2.7-3.8,4.1C80.9,15.1,80.8,15.1,80.7,15.2L80.7,15.2z
		 M73.6,0.6c0,0.2,0,0.3,0,0.5c0,3,0,6,0,9c0,0.4-0.1,0.6-0.5,0.5c-1,0-2.1,0-3.1,0c-0.5,0-0.7-0.2-0.7-0.7c0-1.5,0-3,0-4.5
		c0-0.2,0.1-0.4,0.2-0.5c1.3-1.4,2.6-2.7,3.9-4.1C73.5,0.8,73.5,0.7,73.6,0.6z M69.9,11.4h9.4c0.6,0,0.6,0,0.6,0.6c0,1,0,2,0,3
		c0,0.6-0.2,0.7-0.7,0.7c-1.5,0-3,0-4.5,0c-0.2,0-0.4-0.1-0.5-0.2c-1.4-1.3-2.8-2.6-4.1-3.9C70,11.6,70,11.5,69.9,11.4L69.9,11.4z"
		/>
</g>
</svg>
