<svg width="101" height="22" viewBox="0 0 101 22" xmlns="http://www.w3.org/2000/svg"><title>Fill 2 + Fill 46</title><g fill="none" fill-rule="evenodd"><path d="M22.934 2.2h3.464v5.275h2.41V2.2h3.613v14.166h-3.613V10.64h-2.41v5.726h-3.463V2.2zM79.39 3.96h3.16v2.11h1.356v2.863H82.55V12.7c0 .905.603 3.165 1.055 3.768h-3.313c-.15-.3-.903-1.507-.903-3.165V3.96zm-22.495 2.2h3.313v10.248h-3.313V6.16zm36.166 0h5.572c1.355 0 2.26.904 2.26 2.562v7.836h-3.163V9.174c0-.904-1.356-.904-1.356 0v7.384H93.06V6.16zm-41.898-2.2h3.01v2.11h1.507v2.863h-1.507V12.7c0 .905.753 3.165 1.204 3.768h-3.463c-.15-.3-.752-1.507-.752-3.165V3.96zm10.144 2.2h5.57c1.357 0 2.26.904 2.26 2.562v7.836h-3.012V9.174c-.15-.904-1.506-.904-1.506 0v7.384h-3.312V6.16zm-18.965 0h5.572c1.355 0 2.258.904 2.258 2.562v7.836h-3.01V9.174c-.152-.904-1.507-.904-1.507 0v7.384H42.34V6.16zm-6.56 10.398c-1.357 0-2.26-.904-2.26-2.56V6.16h3.01v7.384c.152.905 1.507.905 1.507 0V6.16h3.313v10.398h-5.57zM88.304 6.16c2.56 0 4.066.3 4.066 4.22l.15 2.26c-.15 3.768-1.805 4.22-4.215 4.22s-4.065-.452-4.065-4.22v-2.26c0-3.92 1.656-4.22 4.065-4.22zm.753 3.315v4.07c0 1.055-1.506.904-1.506 0v-4.07c0-1.054 1.506-1.054 1.506 0zM72.988 6.16h5.57v11.303c0 1.657-1.354 3.164-4.366 3.164-3.01 0-4.065-1.507-4.065-3.164v-.754h3.312s-.302 1.657 1.204 1.657c1.355 0 .903-2.11.903-2.11h-2.56c-2.258 0-2.56-2.41-2.56-4.822 0-2.562.302-5.275 2.56-5.275zm2.41 3.014c.15 2.26.15 2.26 0 4.37 0 .905-1.206.905-1.356 0-.15-2.11-.15-2.11 0-4.37.15-1.055 1.355-1.055 1.355 0z" fill="#716862"/><path d="M8.923.162v6.65L6.645 8.24v-6.84s.57-.38 2.278-1.236zm4.367 1.9c.38.19 2.09 1.14 2.28 1.33v15.296l-2.28 1.236v-7.696l-4.367 2.47v7.126l-2.278-1.33v-7.316l6.645-3.99V2.062zM2.468 3.867v14.25L0 16.694V5.387l2.468-1.52zm14.05 0c.474.285 1.424.855 2.373 1.33v11.496l-2.277 1.33h-.095V3.867zm-4.177 9.786v6.84l-2.467 1.33V15.08l2.468-1.425zM9.874.163c.475.19 1.993 1.044 2.468 1.33v7.125l-6.644 3.99v7.316l-2.373-1.236V3.392l2.373-1.425v7.79l4.177-2.564V.163z" fill="#69C03C"/></g></svg>