<?xml version="1.0" encoding="utf-8"?>
<!-- Generator: Adobe Illustrator 21.0.0, SVG Export Plug-In . SVG Version: 6.00 Build 0)  -->
<svg width="120" height="21" version="1.1" id="Layer_1" xmlns="http://www.w3.org/2000/svg" xmlns:xlink="http://www.w3.org/1999/xlink" x="0px" y="0px"
	 viewBox="0 0 120 21" style="enable-background:new 0 0 120 21;" xml:space="preserve">
<style type="text/css">
	.st0{fill:#FFFFFF;}
</style>
<title>Page 1 Copy 2</title>
<g>
	<path class="st0" d="M7.5,9.5l5.7,10.2l-2-15.2L7.5,9.5L7.5,9.5z M17.1,19.7h11.7l-7.2-9.8l-0.1-0.1L17.1,19.7L17.1,19.7z
		 M14.4,0.2l-2.9,3.9l2.9,15.6h0L17.3,4L14.4,0.2L14.4,0.2z M7.2,9.9L0,19.7h11.6L7.3,9.8L7.2,9.9L7.2,9.9z M15.8,19.7L15.8,19.7
		l5.5-10.3l-3.7-5L15.8,19.7L15.8,19.7z M40.1,6.5h-1.1v5.8H40c1.1,0,1.9,0,2.5-0.6c0.6-0.5,0.8-1.3,0.8-2.3c0-0.6-0.1-1.1-0.4-1.6
		c-0.2-0.4-0.6-0.8-1.1-1C41.4,6.6,40.8,6.5,40.1,6.5L40.1,6.5z M39.8,13h-0.7v4.8c0,0.5,0.1,0.9,0.2,1.2c0.2,0.3,0.4,0.4,0.6,0.5
		c0.2,0.1,0.5,0.1,0.9,0.1v0.3h-6.6v-0.3c0.7,0,1.2-0.2,1.4-0.5c0.2-0.3,0.3-0.8,0.3-1.3v-10c0-0.7-0.1-1.2-0.4-1.4
		C35.3,6.1,34.8,6,34.2,6V5.7h7.6c1,0,1.8,0.2,2.5,0.5c0.7,0.3,1.3,0.7,1.7,1.3c0.4,0.6,0.6,1.2,0.6,1.9c0,0.6-0.1,1.1-0.4,1.5
		c-0.2,0.4-0.6,0.8-1,1.1c-0.4,0.3-0.9,0.5-1.4,0.7c0.7,0.4,1.3,1.2,1.9,2.2l1.7,2.9c0.3,0.5,0.6,0.9,0.8,1.1
		c0.2,0.3,0.5,0.5,0.6,0.5c0.2,0.1,0.4,0.1,0.6,0.2v0.3h-4.4c-0.4-0.8-0.8-1.4-1-1.9c-0.8-1.5-1.3-2.5-1.7-3.1
		c-0.3-0.6-0.7-1-1.1-1.3C41,13.4,40.4,13,39.8,13L39.8,13z M59.8,9.1l0,2.4l-0.4,0c-0.1-0.4-0.2-0.7-0.3-0.9
		c-0.1-0.3-0.3-0.5-0.6-0.6c-0.2-0.1-0.6-0.2-1-0.2H55l0,4.5l1.9,0c0.6,0,1-0.1,1.2-0.4c0.3-0.2,0.7-0.4,0.7-0.9l0.3,0l0,3.3h-0.4
		c-0.1-0.5-0.6-1-0.9-1.2c-0.3-0.2-0.7-0.2-1.1-0.2H55l0,3.3c0,1.3,0.7,1.5,1.7,1.5h0.7c0.5,0,0.9-0.2,1.2-0.3
		c0.3-0.1,0.6-0.3,0.8-0.6c0.2-0.3,0.2-0.7,0.4-1.2h0.3l0,2.6h-9v-0.2c0.6,0,1-0.1,1.2-0.4c0.2-0.3,0.3-0.6,0.3-1v-7.7
		c0-0.4-0.1-0.7-0.2-1c-0.2-0.3-0.5-0.4-1.1-0.4h-0.1V9L59.8,9.1L59.8,9.1z M72.6,12.4h-0.2c-0.3-0.8-1-2-1.7-2.4
		c-0.7-0.5-1.5-0.7-2.4-0.7c-0.7,0-1.3,0.1-1.7,0.5c-0.5,0.3-0.8,0.7-1.1,1.2s-0.4,1-0.5,1.6c-0.1,0.6-0.2,1.2-0.2,1.9
		c0,1.6,0.3,2.9,1,3.7c0.6,0.9,1.5,1.3,2.6,1.3c0.8,0,1.3-0.1,1.5-0.3c0.2-0.2,0.3-0.6,0.3-1v-1.3c0-0.3,0-0.5-0.1-0.7
		c0-0.2-0.1-0.2-0.3-0.4c-0.2-0.2-0.8-0.3-1.1-0.3v-0.2h5.3v0.2c-0.7,0.1-1.4,0.3-1.4,1.1v2.7c-1.2,0.5-2.5,0.8-4,0.8
		c-0.6,0-1.1,0-1.6-0.1c-0.5-0.1-0.9-0.2-1.3-0.3c-0.4-0.1-0.7-0.3-1-0.5s-0.5-0.4-0.7-0.6c-0.3-0.3-0.6-0.6-0.8-1
		c-0.2-0.4-0.5-0.9-0.6-1.4c-0.2-0.5-0.2-1.1-0.2-1.7c0-0.8,0.2-1.6,0.4-2.3c0.3-0.7,0.7-1.3,1.3-1.8c0.5-0.5,1.2-0.9,1.9-1.2
		c0.7-0.3,1.4-0.4,2.2-0.4c0.4,0,0.9,0.1,1.2,0.1c0.3,0.1,0.8,0.4,1.6,0.6c0.2,0.1,0.5,0.1,0.8,0.1c0.3,0,0.7-0.4,0.8-0.8h0.2
		L72.6,12.4L72.6,12.4z M76,9V8.8h5.4V9c-0.6,0-1,0.1-1.2,0.4C80.1,9.7,80,9.7,80,10.2v8.1c0,0.3,0,0.5,0.1,0.7
		c0,0.2,0.2,0.4,0.4,0.6c0.2,0.2,0.5,0.2,0.9,0.2h0.1V20H76v-0.2c0.6,0,1-0.1,1.2-0.4c0.2-0.3,0.3-0.6,0.3-1.1v-8.1
		c0-0.5-0.1-0.6-0.3-0.8C76.8,9.1,76.5,9,76,9L76,9z M86.7,14c0,0.8,0.1,1.5,0.2,2.3c0.1,0.8,0.4,1.5,0.9,2.1c0.5,0.7,1.2,1,2.2,1
		c1.4,0,2.3-0.5,2.6-1.7c0.4-1.1,0.6-2.2,0.6-3.4c0-0.9-0.1-1.7-0.2-2.5c-0.2-0.8-0.5-1.4-1-2C91.6,9.3,90.9,9,90,9
		c-1,0-1.7,0.3-2.2,0.9c-0.5,0.6-0.8,1.3-0.9,2C86.8,12.7,86.7,13.4,86.7,14L86.7,14z M84,14.2c0-0.8,0.1-1.5,0.4-2.2
		c0.3-0.7,0.7-1.3,1.2-1.9c0.5-0.5,1.1-0.9,1.9-1.2C88.2,8.5,89,8.4,90,8.4c0.9,0,1.8,0.1,2.5,0.5c0.7,0.3,1.4,0.7,1.9,1.3
		c0.5,0.5,0.9,1.2,1.2,1.9c0.3,0.7,0.4,1.5,0.4,2.2c0,0.8-0.1,1.5-0.4,2.2c-0.3,0.7-0.6,1.3-1.1,1.8c-0.5,0.5-1.1,1-1.9,1.3
		C91.8,19.9,90.9,20,90,20c-1,0-1.9-0.2-2.7-0.5c-0.8-0.4-1.4-0.8-1.9-1.4c-0.5-0.6-0.8-1.2-1.1-1.9C84.1,15.5,84,14.8,84,14.2
		L84,14.2z M101.4,8.8l6.6,7v-5.1c0-0.7-0.2-1.1-0.5-1.4c-0.3-0.2-0.5-0.3-1-0.4V8.8h3.7V9c-0.4,0-0.6,0-0.9,0.2
		c-0.2,0.1-0.3,0.3-0.5,0.5c-0.1,0.2-0.2,0.6-0.2,0.9v9.2h-0.3l-8.2-8.9v6.4c0,0.5,0,1.1,0.2,1.5c0.2,0.4,0.9,0.4,1.5,0.5v0.2h-3.9
		v-0.2c1.1-0.1,1.3-0.6,1.3-1.6v-7.5C98.9,9.7,98.8,9,98,9l0-0.2L101.4,8.8L101.4,8.8z M118.9,11.4h-0.3c-0.2-0.7-0.5-1.3-1-1.7
		c-0.5-0.4-1.3-0.6-2-0.6c-0.3,0-0.6,0.1-0.9,0.2c-0.3,0.1-0.5,0.3-0.6,0.5c-0.2,0.2-0.2,0.5-0.2,0.8c0,0.2,0,0.3,0.1,0.5
		c0.1,0.2,0.2,0.4,0.4,0.6c0.2,0.2,0.6,0.5,1,0.8c0.5,0.3,0.8,0.5,1,0.6c0.7,0.4,1.4,0.8,1.9,1.2c0.5,0.4,0.7,0.6,0.9,1
		c0.2,0.4,0.3,0.9,0.3,1.4c0,0.5-0.1,0.9-0.3,1.3s-0.3,0.7-0.7,1c-0.3,0.3-0.7,0.5-1.2,0.7c-0.5,0.2-1,0.2-1.5,0.2
		c-0.6,0-1.2-0.1-2-0.3c-0.1,0-0.2,0-0.3-0.1c-0.1,0-0.2,0-0.3,0c-0.2,0-0.4,0.1-0.5,0.4h-0.3l0-3.4h0.2c0.1,0.6,0.4,1.5,0.7,1.9
		c0.4,0.4,0.8,0.6,1.2,0.8c0.4,0.2,0.8,0.2,1.2,0.2c0.6,0,1.1-0.2,1.4-0.5c0.4-0.3,0.6-0.7,0.6-1.1c0-0.3-0.1-0.6-0.2-0.8
		c-0.2-0.2-0.4-0.5-0.7-0.7c-0.3-0.2-0.9-0.6-1.8-1.2c-0.5-0.3-0.9-0.6-1.2-0.9s-0.6-0.5-0.8-0.8c-0.2-0.2-0.3-0.4-0.4-0.7
		c-0.1-0.2-0.2-0.5-0.2-0.8c-0.1-0.6,0.1-1.2,0.4-1.8c0.3-0.5,0.7-1,1.2-1.3c0.5-0.3,1.4-0.4,2-0.4c0.3,0,0.6,0,0.9,0.1
		c0.1,0,0.2,0,0.3,0.1c0.1,0,0.2,0.1,0.3,0.1c0.2,0,0.4,0.1,0.5,0.1c0.2,0,0.3,0,0.4-0.1s0.1-0.1,0.2-0.2h0.2V11.4L118.9,11.4z"/>
</g>
</svg>
