<svg width="120" height="21" viewBox="0 0 120 21" xmlns="http://www.w3.org/2000/svg"><title>regions_clrd</title><g fill="none" fill-rule="evenodd"><path d="M7.534 9.486l5.725 10.177-2.043-15.16-3.683 4.983zM17.126 19.675h11.74l-7.217-9.76-.08-.11-4.444 9.87zM14.433.154l-2.9 3.923 2.857 15.598h.024l2.873-15.662-2.854-3.86zM7.216 9.915L0 19.675h11.613L7.303 9.8l-.087.115zM15.784 19.675h.065l5.43-10.26-3.665-4.957-1.83 15.217z" fill="#7AC142"/><g fill="#439538"><path d="M40.146 6.483H39.09v5.76h.932c1.1 0 1.925-.038 2.48-.57.557-.532.835-1.298.835-2.298 0-.62-.12-1.143-.36-1.572-.24-.43-.597-.756-1.072-.982-.476-.225-1.062-.337-1.76-.337m-.315 6.546h-.74v4.77c0 .54.08.942.24 1.21.16.266.354.437.584.51.23.074.537.117.92.13v.26h-6.633v-.278c.742 0 1.22-.168 1.43-.502.21-.335.316-.78.316-1.332V7.835c0-.682-.138-1.163-.412-1.442-.275-.28-.72-.42-1.333-.42v-.278h7.618c.966 0 1.813.15 2.542.454.728.303 1.285.73 1.668 1.285.384.554.576 1.188.576 1.903 0 .58-.122 1.096-.366 1.547-.243.45-.57.82-.984 1.11-.413.29-.873.513-1.38.668.66.417 1.3 1.156 1.92 2.217l1.688 2.882c.288.495.553.88.796 1.15.242.274.456.455.642.542.185.086.386.145.604.178v.277H45.14c-.44-.804-.78-1.442-1.017-1.918-.754-1.485-1.304-2.516-1.65-3.095-.344-.58-.7-.996-1.067-1.253-.368-.257-1.007-.615-1.576-.615M59.793 9.057l-.007 2.375-.356-.024c-.107-.41-.21-.676-.34-.944-.13-.266-.316-.47-.556-.61-.24-.142-.568-.212-.983-.212h-2.537l.02 4.458 1.938-.002c.566 0 .977-.116 1.235-.35.26-.232.68-.44.723-.895l.33.003.02 3.257h-.395c-.08-.483-.564-.996-.873-1.16-.31-.162-.677-.244-1.103-.244h-1.875l-.02 3.284c.016 1.274.685 1.46 1.698 1.46h.72c.484 0 .866-.154 1.172-.272.306-.12.56-.324.76-.614.2-.29.224-.7.384-1.23h.32l-.006 2.63h-8.972v-.215c.618 0 1.017-.13 1.2-.39.18-.26.27-.6.27-1.02V10.68c0-.4-.083-.74-.248-1.016-.165-.277-.546-.416-1.143-.416h-.08v-.215l8.706.024zM72.592 12.452h-.217c-.29-.77-1.014-1.965-1.69-2.446-.677-.48-1.468-.72-2.372-.72-.7 0-1.282.15-1.746.452-.465.302-.826.704-1.083 1.204s-.436 1.044-.536 1.628c-.1.584-.15 1.202-.15 1.85 0 1.61.318 2.85.956 3.71.636.865 1.494 1.297 2.573 1.297.775 0 1.26-.116 1.453-.348.195-.232.293-.574.293-1.028V16.77c0-.258-.02-.484-.06-.68-.04-.197-.12-.216-.286-.38-.168-.163-.752-.255-1.093-.275V15.2h5.262v.235c-.676.09-1.364.345-1.364 1.085v2.71c-1.18.544-2.514.815-4.003.815-.6 0-1.145-.042-1.632-.124-.487-.08-.92-.198-1.3-.346-.38-.15-.7-.31-.96-.483s-.505-.368-.734-.584c-.317-.302-.6-.65-.848-1.042-.248-.393-.45-.85-.608-1.37-.16-.522-.238-1.095-.238-1.72 0-.84.15-1.608.447-2.303.297-.693.72-1.297 1.264-1.807.546-.512 1.17-.9 1.873-1.167.702-.268 1.444-.4 2.224-.4.44 0 .855.075 1.173.147.297.067.823.365 1.585.595.242.073.5.12.78.12.294 0 .724-.387.82-.772h.217v3.666zM76.01 8.996v-.208h5.382v.224c-.597 0-.983.137-1.156.412-.174.274-.26.306-.26.755v8.096c0 .257.023.486.07.69.046.203.17.388.37.552.2.165.503.247.914.247h.062v.223H76.01v-.223c.59 0 .975-.136 1.152-.407.176-.272.264-.632.264-1.082V10.18c0-.534-.115-.59-.346-.828-.23-.237-.587-.356-1.07-.356M86.707 14.015c0 .772.06 1.534.176 2.283.116.75.42 1.45.908 2.103.49.654 1.226.98 2.21.98 1.378 0 2.26-.55 2.647-1.652.388-1.1.582-2.222.582-3.365 0-.892-.08-1.727-.235-2.506-.156-.777-.475-1.444-.956-1.998-.482-.555-1.162-.832-2.04-.832-.99 0-1.726.316-2.212.947-.486.632-.79 1.303-.905 2.014-.117.71-.176 1.385-.176 2.025m-2.712.146c0-.77.133-1.51.4-2.217.267-.706.66-1.326 1.18-1.86.517-.533 1.145-.947 1.885-1.243.738-.297 1.575-.445 2.508-.445.943 0 1.785.15 2.524.452.738.302 1.366.72 1.882 1.257.516.535.906 1.155 1.17 1.858.265.703.398 1.452.398 2.246 0 .788-.13 1.53-.386 2.226-.256.695-.634 1.31-1.13 1.847-.5.537-1.125.96-1.88 1.27-.754.308-1.608.462-2.563.462-1.026 0-1.922-.174-2.687-.52-.764-.35-1.39-.81-1.874-1.38-.485-.573-.844-1.204-1.077-1.895-.234-.69-.35-1.376-.35-2.056M101.386 8.774l6.638 6.98v-5.067c0-.667-.22-1.116-.49-1.36-.268-.243-.476-.275-1.03-.355v-.218h3.657v.218c-.418.045-.602.027-.89.213-.23.15-.334.262-.497.537-.128.218-.154.614-.154.944v9.244h-.258l-8.166-8.85v6.44c0 .523.025 1.108.247 1.477.22.368.93.435 1.526.48v.218h-3.914v-.218c1.1-.09 1.33-.633 1.32-1.63v-7.478c-.46-.628-.616-1.306-1.335-1.343l-.014-.233h3.36zM118.876 11.384h-.304c-.208-.7-.538-1.253-.99-1.656-.453-.403-1.344-.605-1.988-.605-.318 0-.608.062-.87.186-.263.124-.47.3-.624.532-.154.23-.23.496-.23.795 0 .173.03.343.09.51.058.168.202.373.43.618.228.242.576.512 1.043.806.523.32.84.524.954.61.656.4 1.385.797 1.917 1.22.474.38.66.62.878 1.02.218.402.327.857.327 1.365 0 .468-.093.893-.278 1.277-.185.384-.34.717-.682 1-.34.28-.746.5-1.216.654-.472.155-.982.233-1.533.233-.567 0-1.222-.107-1.966-.318-.083-.02-.188-.044-.315-.07-.13-.026-.242-.04-.34-.04-.245 0-.422.13-.532.383h-.273l.007-3.357h.2c.098.6.365 1.48.71 1.863.38.418.776.588 1.187.768.41.18.82.247 1.215.247.578 0 1.058-.214 1.435-.53.378-.314.566-.696.566-1.148 0-.304-.08-.57-.237-.795-.158-.226-.396-.45-.712-.67-.316-.22-.912-.606-1.788-1.153-.463-.296-.857-.58-1.182-.854-.325-.274-.578-.537-.76-.788-.182-.25-.287-.38-.446-.718-.11-.238-.167-.512-.197-.795-.065-.613.067-1.218.356-1.75.29-.533.698-.968 1.23-1.305.53-.338 1.357-.42 2.038-.42.318 0 .62.032.913.1.08.01.182.03.313.06.13.03.24.056.327.074.23.04.4.062.516.062.176 0 .3-.028.37-.084.07-.056.136-.137.2-.244h.24v2.916z"/></g></g></svg>