<?xml version="1.0" encoding="utf-8"?>
<!-- Generator: Adobe Illustrator 21.0.0, SVG Export Plug-In . SVG Version: 6.00 Build 0)  -->
<svg width="68" height="20" version="1.1" id="Layer_1" xmlns="http://www.w3.org/2000/svg" xmlns:xlink="http://www.w3.org/1999/xlink" x="0px" y="0px"
	 viewBox="0 0 68 20" style="enable-background:new 0 0 68 20;" xml:space="preserve">
<style type="text/css">
	.st0{fill:#858585;}
</style>
<title>Fill 2 + Fill 3 Copy</title>
<g>
	<path class="st0" d="M10.1,0.4c-5.5,0-9.9,4.4-9.9,9.7c0,5.4,4.4,9.7,9.9,9.7c5.5,0,9.9-4.4,9.9-9.7C20,4.7,15.6,0.4,10.1,0.4
		L10.1,0.4z M4.8,5.1l0-0.3c0-1.1,0.5-2,1.1-2.1c0.8-0.2,1.9,0.7,3,2.6l1,1.7C9.6,7,9.3,7.2,9.1,7.6l-3.3,5.7
		c-0.5,0.8-0.8,1.6-1,2.2v0C4.7,13.9,4.7,10.9,4.8,5.1L4.8,5.1z M8.3,17.2L8,17.3c-0.9,0.5-2,0.6-2.4,0.1c-0.6-0.6-0.3-2,0.8-3.9
		l1-1.7c0.2,0.2,0.5,0.3,0.9,0.3H15c1,0,1.8-0.1,2.5-0.2l0,0C16.1,12.8,13.5,14.3,8.3,17.2L8.3,17.2z M15,11.5h-2
		c0.1-0.3,0.1-0.6-0.1-0.9L9.5,4.9C9,4.1,8.5,3.4,8,2.9l0,0c1.3,0.7,4,2.2,9.1,5.1l0.3,0.2c0.9,0.5,1.5,1.4,1.3,2
		C18.6,11,17.2,11.5,15,11.5L15,11.5z M30,10.1h-1V5.4c0-1.1,0-1.3,2.1-1.3c2.4,0,3.7,1.1,3.7,3C34.8,9.7,32.4,10.1,30,10.1z
		 M30.3,3h-6.6v0.6l0.1,0c2.3,0.3,2.5,0.6,2.5,1.7v12.1h2.6v-6.3H30c2.5,0,7.7,0,7.7-4.1C37.7,3,32.9,3,30.3,3z M52.6,3h-1.5v11.3
		C50.7,13.7,42.8,3,42.8,3h-5.6v0.6l0.1,0c2.3,0.3,2.5,0.4,2.5,2v11.8h1.7V5.4l8.9,12.1h2.3V3H52.6z M54.8,9.8
		c0,3.9,2.5,7.9,7.9,7.9c2.6,0,3.9-0.3,5.1-0.6l0.1,0v-1.2L67.7,16c-1.3,0.3-2.5,0.5-3.5,0.5c-4.4,0-6.5-2.4-6.5-7.2
		C57.7,6,59.3,4,61.9,4c1.8,0,2.8,0.7,3.1,2l0,0.1h2.9l0-0.2c-0.1-0.8-0.8-3.2-5.8-3.2C57.2,2.8,54.8,5.1,54.8,9.8L54.8,9.8z"/>
</g>
</svg>
