<svg width="68" height="20" viewBox="0 0 68 20" xmlns="http://www.w3.org/2000/svg"><title>pnc_colored</title><g fill="none" fill-rule="evenodd"><path d="M10.08.386C4.605.386.17 4.746.17 10.12c0 5.376 4.436 9.735 9.91 9.735 5.472 0 9.91-4.36 9.91-9.734 0-5.375-4.438-9.734-9.91-9.734zM4.75 5.11l.003-.33c.004-1.07.457-1.967 1.08-2.13.813-.214 1.91.738 3.01 2.608l1.022 1.738c-.298.052-.548.245-.744.578L5.787 13.25c-.487.826-.825 1.57-1.014 2.222v-.032c-.035-1.498-.066-4.507-.02-10.33zm3.574 12.05l-.29.162c-.947.533-1.964.595-2.42.146-.593-.586-.303-1.994.796-3.864l1.024-1.74c.195.228.49.344.878.344h6.67c.974 0 1.8-.083 2.468-.248l-.027.016c-1.304.778-3.94 2.31-9.1 5.184zm6.66-5.66h-2.046c.103-.282.06-.59-.135-.92L9.467 4.903c-.486-.827-.973-1.486-1.452-1.975l.028.015c1.336.72 4.002 2.196 9.114 5.146l.293.17c.943.54 1.506 1.373 1.338 1.984-.22.798-1.606 1.256-3.805 1.256z" fill="#FF7200"/><path d="M29.956 10.095h-1.01V5.408c0-1.1 0-1.27 2.14-1.27 2.403 0 3.727 1.062 3.727 2.99 0 2.615-2.455 2.967-4.857 2.967zm.323-7.07h-6.646v.635l.13.015c2.315.276 2.55.575 2.55 1.734v12.08h2.633v-6.282h1.063c2.503 0 7.71 0 7.71-4.08 0-4.102-4.84-4.102-7.44-4.102zm22.34 0h-1.548V14.3c-.41-.558-8.237-11.274-8.237-11.274h-5.59v.632l.13.017c2.26.29 2.55.388 2.55 1.984v11.83h1.697V5.363l8.88 12.125h2.266V3.025h-.148zm2.167 6.758c0 3.95 2.454 7.933 7.933 7.933 2.602 0 3.885-.28 5.074-.594l.11-.03v-1.185l-.2.053c-1.266.332-2.51.517-3.502.517-4.378 0-6.507-2.368-6.507-7.24 0-3.257 1.576-5.2 4.217-5.2 1.77 0 2.81.683 3.088 2.03l.023.116h2.902l-.022-.164c-.098-.756-.81-3.222-5.83-3.222-4.834 0-7.286 2.35-7.286 6.985z" fill="#054B8D"/></g></svg>