<svg width="126" height="28" viewBox="0 0 126 28" xmlns="http://www.w3.org/2000/svg" xmlns:xlink="http://www.w3.org/1999/xlink"><title>union_bank_clrd</title><defs><path id="a" d="M0 .193h125.78V28H0V.193z"/><path id="c" d="M0 .193h125.78V28H0V.193z"/></defs><g fill="none" fill-rule="evenodd"><path d="M37.036 24.79c-.926 0-1.76-.115-2.5-.35-.742-.232-1.372-.59-1.89-1.078-.52-.485-.917-1.1-1.195-1.843-.277-.744-.416-1.62-.416-2.627V11.65h3.65v7.168c0 .935.215 1.626.647 2.075.434.45 1.013.672 1.742.672.73 0 1.31-.214 1.74-.645.433-.43.65-1.1.65-2.01v-7.26h3.648v7.15c0 1.046-.145 1.945-.435 2.702-.29.755-.698 1.375-1.223 1.86-.524.487-1.16.846-1.907 1.08-.747.233-1.584.35-2.51.35M72.82 14.9h3.52v1.402c.16-.21.34-.412.535-.608.2-.197.42-.37.667-.517.247-.147.52-.266.816-.36.295-.09.623-.138.982-.138 1.073 0 1.91.326 2.51.976.597.652.897 1.55.897 2.69v6.527h-3.52v-5.4c0-.554-.13-.972-.387-1.255-.26-.283-.6-.424-1.02-.424-.432 0-.786.14-1.065.424-.277.283-.416.7-.416 1.254v5.4h-3.52v-9.97zm-6.398 10.213c-.803 0-1.54-.137-2.213-.407-.674-.27-1.257-.64-1.75-1.115-.495-.472-.878-1.022-1.15-1.648-.27-.626-.407-1.297-.407-2.01v-.036c0-.713.14-1.385.416-2.018.277-.634.663-1.186 1.157-1.66.494-.472 1.08-.847 1.76-1.124.68-.276 1.42-.415 2.222-.415s1.54.138 2.212.414c.673.277 1.257.65 1.752 1.116.493.466.875 1.014 1.147 1.64.273.627.41 1.296.41 2.01v.036c0 .713-.14 1.385-.42 2.018-.276.633-.662 1.185-1.156 1.658-.493.474-1.08.85-1.76 1.125-.678.277-1.42.416-2.222.416zm.037-2.97c.32 0 .61-.057.87-.174.258-.117.478-.277.657-.48.18-.203.32-.44.417-.71.098-.27.147-.552.147-.848v-.036c0-.307-.05-.596-.156-.866-.104-.27-.253-.507-.445-.71-.192-.203-.416-.366-.676-.488-.26-.123-.543-.184-.852-.184-.322 0-.61.057-.87.175-.26.116-.478.277-.657.48-.18.2-.32.438-.418.71-.098.268-.148.552-.148.846v.036c0 .307.052.595.157.867.104.27.252.506.444.71.192.2.418.365.677.487.26.123.544.184.852.184zM56.142 11.418h3.667v2.58h-3.667v-2.58zm.074 3.484h3.518v9.973h-3.518V14.9zm-11.59 0h3.52v1.402c.16-.21.34-.412.537-.608.198-.197.42-.37.667-.517.248-.147.52-.266.816-.36.296-.09.624-.138.982-.138 1.074 0 1.91.326 2.51.976.598.652.897 1.55.897 2.69v6.527h-3.52v-5.4c0-.554-.128-.972-.387-1.255-.26-.283-.6-.424-1.02-.424-.43 0-.786.14-1.064.424-.278.283-.417.7-.417 1.254v5.4h-3.52v-9.97zM116.974 11.847h1.426v8.618l5.166-5.364h1.78l-4.02 4.092 4.15 5.438h-1.705l-3.425-4.442-1.945 1.954v2.488h-1.426V11.847zM106.55 15.1h1.425v1.66c.32-.516.74-.955 1.26-1.32.517-.36 1.19-.543 2.018-.543.58 0 1.096.093 1.546.278.45.184.832.445 1.147.783.315.337.555.74.723 1.206.166.468.25.984.25 1.55v5.916h-1.426v-5.567c0-.883-.23-1.585-.686-2.1-.457-.517-1.11-.775-1.963-.776-.408 0-.787.072-1.14.213-.352.142-.656.344-.916.608-.26.265-.46.58-.603.95-.142.37-.212.774-.212 1.216v5.456h-1.426V15.1zm-6.66 9.733c-.443 0-.882-.062-1.314-.185-.432-.123-.815-.31-1.15-.562-.333-.25-.602-.562-.804-.93-.204-.37-.305-.8-.305-1.29v-.038c0-.516.098-.968.295-1.354.198-.387.48-.71.843-.968.364-.26.797-.455 1.296-.59.5-.135 1.053-.203 1.66-.203.617 0 1.15.037 1.6.11.452.076.893.173 1.325.296v-.297c0-.847-.246-1.49-.74-1.925-.495-.436-1.192-.654-2.093-.654-.568 0-1.083.06-1.546.184-.464.124-.918.288-1.362.497l-.426-1.16c.53-.246 1.068-.444 1.61-.59.544-.148 1.167-.22 1.872-.22 1.36 0 2.39.35 3.094 1.05.665.662 1 1.596 1 2.8v5.825h-1.41v-1.42c-.332.43-.78.81-1.342 1.134-.562.325-1.262.49-2.1.49zm.28-1.143c.444 0 .857-.062 1.24-.185.38-.123.72-.298 1.01-.526.29-.227.516-.497.684-.81.167-.314.25-.662.25-1.042v-.886c-.358-.097-.764-.19-1.223-.276-.454-.086-.98-.128-1.573-.128-.888 0-1.577.174-2.065.524-.487.35-.73.815-.73 1.392v.038c0 .294.063.56.193.8s.306.44.528.6c.223.16.478.283.768.37.292.085.598.128.92.128zM84.693 11.728h5.518c.74 0 1.4.1 1.973.304.574.202 1.046.482 1.417.84.555.576.833 1.264.833 2.063v.037c0 .417-.06.79-.175 1.114-.118.327-.276.608-.473.85-.197.238-.417.44-.658.607-.24.166-.492.304-.75.415.382.11.744.255 1.083.434.34.178.632.39.88.634.247.246.444.54.593.876.148.338.222.728.222 1.17v.037c0 .553-.11 1.047-.333 1.483-.223.436-.54.804-.954 1.106-.413.3-.91.53-1.49.69-.58.16-1.223.24-1.928.24h-5.758V11.728zm5.277 5.75c.89 0 1.61-.194 2.16-.58.548-.387.824-.962.824-1.723v-.038c0-.638-.247-1.148-.74-1.53-.495-.38-1.204-.57-2.13-.57h-3.946v4.44h3.833zm.52 5.843c.988 0 1.766-.202 2.334-.607.568-.406.852-.97.852-1.696v-.037c0-.7-.29-1.244-.87-1.63-.58-.388-1.44-.58-2.575-.58H86.14v4.55h4.352z" fill="#26499F"/><path d="M116.974 11.847h1.426v8.618l5.166-5.364h1.78l-4.02 4.092 4.15 5.438h-1.705l-3.425-4.442-1.945 1.954v2.488h-1.426V11.847zM106.55 15.1h1.425v1.66c.32-.516.74-.955 1.26-1.32.517-.36 1.19-.543 2.018-.543.58 0 1.096.093 1.546.278.45.184.832.445 1.147.783.315.337.555.74.723 1.206.166.468.25.984.25 1.55v5.916h-1.426v-5.567c0-.883-.23-1.585-.686-2.1-.457-.517-1.11-.775-1.963-.776-.408 0-.787.072-1.14.213-.352.142-.656.344-.916.608-.26.265-.46.58-.603.95-.142.37-.212.774-.212 1.216v5.456h-1.426V15.1zm-6.66 9.733c-.443 0-.882-.062-1.314-.185-.432-.123-.815-.31-1.15-.562-.333-.25-.602-.562-.804-.93-.204-.37-.305-.8-.305-1.29v-.038c0-.516.098-.968.295-1.354.198-.387.48-.71.843-.968.364-.26.797-.455 1.296-.59.5-.135 1.053-.203 1.66-.203.617 0 1.15.037 1.6.11.452.076.893.173 1.325.296v-.297c0-.847-.246-1.49-.74-1.925-.495-.436-1.192-.654-2.093-.654-.568 0-1.083.06-1.546.184-.464.124-.918.288-1.362.497l-.426-1.16c.53-.246 1.068-.444 1.61-.59.544-.148 1.167-.22 1.872-.22 1.36 0 2.39.35 3.094 1.05.665.662 1 1.596 1 2.8v5.825h-1.41v-1.42c-.332.43-.78.81-1.342 1.134-.562.325-1.262.49-2.1.49zm.28-1.143c.444 0 .857-.062 1.24-.185.38-.123.72-.298 1.01-.526.29-.227.516-.497.684-.81.167-.314.25-.662.25-1.042v-.886c-.358-.097-.764-.19-1.223-.276-.454-.086-.98-.128-1.573-.128-.888 0-1.577.174-2.065.524-.487.35-.73.815-.73 1.392v.038c0 .294.063.56.193.8s.306.44.528.6c.223.16.478.283.768.37.292.085.598.128.92.128zM84.693 11.728h5.518c.74 0 1.4.1 1.973.304.574.202 1.046.482 1.417.84.555.576.833 1.264.833 2.063v.037c0 .417-.06.79-.175 1.114-.118.327-.276.608-.473.85-.197.238-.417.44-.658.607-.24.166-.492.304-.75.415.382.11.744.255 1.083.434.34.178.632.39.88.634.247.246.444.54.593.876.148.338.222.728.222 1.17v.037c0 .553-.11 1.047-.333 1.483-.223.436-.54.804-.954 1.106-.413.3-.91.53-1.49.69-.58.16-1.223.24-1.928.24h-5.758V11.728zm5.277 5.75c.89 0 1.61-.194 2.16-.58.548-.387.824-.962.824-1.723v-.038c0-.638-.247-1.148-.74-1.53-.495-.38-1.204-.57-2.13-.57h-3.946v4.44h3.833zm.52 5.843c.988 0 1.766-.202 2.334-.607.568-.406.852-.97.852-1.696v-.037c0-.7-.29-1.244-.87-1.63-.58-.388-1.44-.58-2.575-.58H86.14v4.55h4.352z" stroke="#26499F" stroke-width=".74"/><g><mask id="b" fill="#fff"><use xlink:href="#a"/></mask><path d="M0 .193c2.598 0 9.62.68 9.62 9.07v11.45c0 1.435.074 3.29 1.165 4.38-1.86 2.57-5.398 2.254-7.548.642C.887 23.972 0 21.177 0 18.305V.193z" fill="#E31E25" mask="url(#b)"/></g><g><mask id="d" fill="#fff"><use xlink:href="#c"/></mask><path d="M12.458 15.712c0-6.586 6.106-8.218 9.587-8.218v10.58c0 7.41-7.72 10.962-14.035 9.663 1.47-.46 4.448-1.774 4.448-6.358V15.71z" fill="#E31E25" mask="url(#d)"/></g></g></svg>