<svg width="106" height="30" viewBox="0 0 106 30" xmlns="http://www.w3.org/2000/svg" xmlns:xlink="http://www.w3.org/1999/xlink"><title>fifth_third colored</title><defs><path id="a" d="M0 .123h105.904V30H0"/><path id="c" d="M0 .123h105.904V30H0V.123z"/></defs><g fill="none" fill-rule="evenodd"><g><mask id="b" fill="#fff"><use xlink:href="#a"/></mask><path d="M105.904 18.162c-7.923-3.767-23.052-6.565-41.21-7.42V6.376c0-3.44-2.81-6.253-6.246-6.253H41.212v10.62c-18.16.854-33.29 3.652-41.212 7.42 9.424-2.313 24.127-3.976 41.212-4.505v1.147c0 3.44 2.81 6.253 6.246 6.253h17.236v-7.4c17.083.53 31.785 2.192 41.21 4.504" fill="#509136" mask="url(#b)"/></g><path d="M58.464 1.24H42.327v13.58c0 2.817 2.302 5.12 5.115 5.12h16.136V6.36c0-2.816-2.3-5.12-5.114-5.12" fill="#FEFEFE"/><path d="M58.415 1.985H43.07v12.787c0 2.434 1.99 4.424 4.42 4.424h15.344V6.41c0-2.435-1.99-4.425-4.42-4.425" fill="#154397"/><path d="M51.742 17.162l3.532-13.374-.837-.027-3.53 13.404.835-.002zm7.18-4.585c.974-.19 1.384-.68 1.515-.817.325-.335.53-1.047.36-1.628-.167-.58-.45-.96-.926-1.325-.64-.49-1.333-.473-1.333-.473l-3.74-.008c1.58.533 1.908 1.9 1.908 1.9s.59 1.853-1.852 2.34c0 0-.033-.008-.007.002.217.07.793.367 1.275.856.427.432.568 1.083.568 1.083.396 1.914-1.906 2.385-1.906 2.385l3.653-.007c1.27 0 1.84-.708 1.95-.82.324-.337.595-.992.473-1.563-.133-.625-.452-1-.738-1.247-.438-.378-1.198-.684-1.198-.684-.01.002 0 .007 0 .007zm-7.77-.807c.35-.36.467-1.124.285-1.75-.18-.622-.488-1.045-.998-1.437-.69-.527-1.393-.565-1.393-.565l-4.018-.01c1.698.573 2.094 2.042 2.094 2.042.425 2.055-1.93 2.445-1.93 2.445h4.403c.875-.035 1.435-.6 1.554-.725zm-.378-7.635l-.05 2.99-5.697.005V4.124l5.747.01z" fill="#FEFEFE"/><path d="M8.72 26.625c0 .684-.66.886-1.418.886H5.34v1.86c.683.117.992.405.992.586V30H4.007v-6.012c-.406-.14-.715-.416-.715-.61v-.03h6.1v1.675H9.35c-.192 0-.48-.31-.608-.725H5.34v2.252h3.38v.075zM12.272 30h-2.41v-.055c0-.18.256-.48.597-.587v-4.335c-.342-.106-.598-.405-.598-.587v-.053h2.41v.053c0 .182-.255.48-.597.587v4.335c.342.107.597.406.597.587V30zM17.7 27.138c0 .597-.575.833-1.236.833h-1.61v1.388c.49.086.927.406.927.587V30H13.64v-4.977c-.34-.106-.597-.405-.597-.587v-.053h5.226V25.9h-.053c-.18 0-.48-.258-.586-.598h-2.773v1.75H17.7v.086zM24.027 24.383V25.9h-.053c-.182 0-.48-.258-.587-.6h-1.37v4.058c.447.107.81.406.81.587V30H19.99v-.055c0-.18.363-.48.81-.587V25.3h-1.46c-.106.342-.404.6-.585.6h-.053v-1.517h5.325zM26.273 26.69c.395-.086.885-.16 1.706-.16.832 0 1.28.085 1.727.16v-1.666c-.34-.107-.597-.406-.597-.588v-.053h2.41v.053c0 .182-.256.48-.597.588v4.334c.34.107.597.406.597.587V30h-1.813v-2.286c-.448-.074-.895-.16-1.728-.16-.822 0-1.312.075-1.707.16v1.644c.34.107.597.406.597.587V30h-1.813v-4.976c-.34-.107-.597-.406-.597-.588v-.053h2.41v.053c0 .182-.256.48-.597.588v1.665zM42.792 23.348v1.675h-.022c-.203 0-.49-.31-.63-.725h-2.036v5.07c.395.12.714.417.714.61v.02h-2.773v-.02c0-.193.3-.49.715-.61V24.3h-2.027c-.127.416-.405.725-.607.725h-.032v-1.675h6.698zM44.935 26.69c.395-.086.885-.16 1.706-.16.834 0 1.28.085 1.73.16v-1.666c-.342-.107-.598-.406-.598-.588v-.053h2.41v.053c0 .182-.255.48-.597.588v4.334c.342.107.597.406.597.587V30H48.37v-2.286c-.45-.074-.896-.16-1.73-.16-.82 0-1.31.075-1.705.16v1.644c.342.107.597.406.597.587V30H43.72v-4.976c-.342-.107-.598-.406-.598-.588v-.053h2.41v.053c0 .182-.255.48-.597.588v1.665zM53.406 30h-2.41v-.055c0-.18.255-.48.597-.587v-4.335c-.342-.106-.598-.405-.598-.587v-.053h2.41v.053c0 .182-.255.48-.597.587v4.335c.342.107.598.406.598.587V30zM57.982 26.88c1.025 0 1.217-.33 1.217-.788 0-.46-.193-.79-1.218-.79h-1.95v1.58h1.95zM56.628 30h-1.813v-4.977c-.34-.106-.597-.405-.597-.587v-.053h3.935c1.366 0 2.26.448 2.26 1.665 0 .94-.595 1.41-1.534 1.58l1.194 1.73c.298.043.693.353.693.587V30H59.07l-1.514-2.286H56.03v1.644c.342.107.598.406.598.587V30zM64.875 29.08c1.333 0 1.983-.406 1.983-1.89 0-1.483-.65-1.888-1.983-1.888H63.22v3.78h1.655zm-2.87-4.056c-.34-.107-.596-.406-.596-.588v-.053H65.3c1.567 0 2.772.897 2.772 2.808 0 1.912-1.205 2.81-2.772 2.81h-3.296v-4.976zM76.957 28.932c1.13 0 1.556-.32 1.556-.92 0-.597-.415-.95-1.546-.95h-2.592v1.87h2.582zm-.032-2.926c.81 0 1.408-.182 1.408-.876 0-.65-.598-.736-1.408-.736h-2.55v1.612h2.55zm.14-2.658c1.544 0 2.59.395 2.59 1.676 0 .8-.544 1.302-1.472 1.494 1.045.193 1.664.727 1.664 1.612 0 1.047-.907 1.87-2.496 1.87h-4.307v-6.012c-.406-.14-.714-.416-.714-.61v-.03h4.734zM87.68 25.023c-.34-.106-.598-.405-.598-.587v-.053h1.73l3.7 3.812v-3.172c-.342-.106-.597-.405-.597-.587v-.053h2.303v.053c0 .182-.256.48-.597.587v4.335c.342.107.598.406.598.587V30h-1.6l-3.828-3.94v3.298c.34.107.596.406.596.587V30H87.68v-4.977zM99.244 24.928c-.162-.107-.28-.353-.28-.492v-.053h2.316v.053c0 .278-.362.534-.628.577l-2.028 1.708 2.252 2.638c.276.075.682.31.682.587V30H99.86l-2.12-2.564-.886.684v1.238c.34.107.597.406.597.587V30h-1.81v-4.976c-.343-.107-.6-.406-.6-.588v-.053h2.41v.053c0 .182-.255.48-.596.588v1.932l2.39-2.028z" fill="#154397"/><g><mask id="d" fill="#fff"><use xlink:href="#c"/></mask><path d="M83.245 25.73l-.875 1.964c.267-.032.565-.043.95-.043.394 0 .704.023.96.054l-.928-1.974h-.107zm-1.067 4.216V30h-2.345v-.054c0-.278.384-.544.66-.587l2.048-4.4c-.233-.105-.468-.34-.468-.522v-.054h2.677v.054c0 .18-.257.417-.48.523l2.175 4.4c.277.042.66.308.66.586V30h-2.59v-.054c0-.288.298-.49.564-.566l-.33-.704c-.363-.053-.78-.106-1.43-.106-.618 0-1.045.042-1.398.095l-.31.694c.3.042.566.298.566.586z" fill="#154397" mask="url(#d)"/></g></g></svg>