<svg id="Layer_1" data-name="Layer 1" xmlns="http://www.w3.org/2000/svg" viewBox="0 0 164 100"><defs><style>.cls-1{fill:#7f7f7f;opacity:0;}.cls-2{fill:gray;}</style></defs><title>Untitled-1</title><rect class="cls-1" x="-0.61" y="-0.17" width="164.29" height="100"/><g id="Paypal"><g id="Paypal-2.0"><path id="Fill-1" class="cls-2" d="M21.55,30.77H8.9a1.75,1.75,0,0,0-1.74,1.46L2.05,64.07a1,1,0,0,0,1,1.2h6a1.75,1.75,0,0,0,1.74-1.46l1.38-8.59A1.74,1.74,0,0,1,14,53.76h4c8.33,0,13.14-3.95,14.4-11.8.57-3.43,0-6.13-1.61-8-1.8-2.07-5-3.17-9.23-3.17M23,42.4c-.69,4.46-4.16,4.46-7.51,4.46H13.59l1.34-8.32a1.05,1.05,0,0,1,1-.88h.88c2.28,0,4.44,0,5.55,1.28A4.08,4.08,0,0,1,23,42.4"/><path id="Fill-3" class="cls-2" d="M58.63,42.31H52.71a1,1,0,0,0-1,.88l-.27,1.68L51,44.26c-1.28-1.88-4.14-2.51-7-2.51-6.53,0-12.12,5-13.21,12A11.44,11.44,0,0,0,33,63c1.8,2.15,4.38,3,7.45,3a11.26,11.26,0,0,0,8.19-3.43l-.27,1.67a1.05,1.05,0,0,0,1,1.21h5.33A1.74,1.74,0,0,0,56.45,64l3.19-20.51a1,1,0,0,0-1-1.21M50.38,54a6.62,6.62,0,0,1-6.67,5.72,4.94,4.94,0,0,1-4-1.62,5.11,5.11,0,0,1-.93-4.21,6.65,6.65,0,0,1,6.63-5.77,4.94,4.94,0,0,1,3.94,1.64,5.23,5.23,0,0,1,1,4.24"/><path id="Fill-5" class="cls-2" d="M90.36,42.14h-6a1.73,1.73,0,0,0-1.44.78L74.57,55.33,71,43.4a1.74,1.74,0,0,0-1.67-1.26H63.45a1.05,1.05,0,0,0-1,1.4L69.1,63.29l-6.25,8.93a1.06,1.06,0,0,0,.86,1.67h6a1.73,1.73,0,0,0,1.43-.75L91.22,43.8a1.06,1.06,0,0,0-.86-1.66"/><path id="Fill-7" class="cls-2" d="M110.15,30.77H97.49a1.74,1.74,0,0,0-1.73,1.46L90.64,64.07a1,1,0,0,0,1,1.2h6.49a1.23,1.23,0,0,0,1.22-1l1.45-9a1.74,1.74,0,0,1,1.73-1.46h4c8.34,0,13.14-3.95,14.4-11.8.57-3.43,0-6.13-1.61-8-1.8-2.07-5-3.17-9.22-3.17m1.46,11.63c-.69,4.46-4.16,4.46-7.52,4.46h-1.91l1.34-8.32a1.06,1.06,0,0,1,1-.88h.88c2.28,0,4.44,0,5.55,1.28a4.08,4.08,0,0,1,.62,3.46"/><path id="Fill-9" class="cls-2" d="M146.82,42.31h-5.91a1,1,0,0,0-1,.88l-.27,1.68-.41-.61c-1.28-1.88-4.14-2.51-7-2.51-6.54,0-12.12,5-13.21,12A11.44,11.44,0,0,0,121.23,63c1.8,2.15,4.38,3,7.45,3a11.26,11.26,0,0,0,8.19-3.43l-.27,1.67a1,1,0,0,0,1,1.21H143A1.73,1.73,0,0,0,144.64,64l3.2-20.51a1,1,0,0,0-1-1.21M138.58,54a6.63,6.63,0,0,1-6.68,5.72,5,5,0,0,1-4-1.62,5.15,5.15,0,0,1-.93-4.21,6.66,6.66,0,0,1,6.63-5.77,5,5,0,0,1,4,1.64,5.23,5.23,0,0,1,1,4.24"/><path id="Fill-11" class="cls-2" d="M154.16,31.65l-5.11,32.42a1,1,0,0,0,1,1.2h5.14a1.74,1.74,0,0,0,1.71-1.46L162,32a1,1,0,0,0-1-1.2h-5.75a1,1,0,0,0-1,.88"/></g></g></svg>