<?xml version="1.0" encoding="UTF-8"?>
<svg width="543px" height="156px" viewBox="0 0 543 156" version="1.1" xmlns="http://www.w3.org/2000/svg" xmlns:xlink="http://www.w3.org/1999/xlink">
    <!-- Generator: Sketch 53.2 (72643) - https://sketchapp.com -->
    <title>Paypal</title>
    <desc>Created with Sketch.</desc>
    <g id="Paypal" stroke="none" stroke-width="1" fill="none" fill-rule="evenodd">
        <g id="LingoAsset-(1)" transform="translate(130.000000, -74.000000)" fill="#7F7F7F">
            <g id="LingoAsset-(8)" transform="translate(0.000000, 122.000000)">
                <path d="M34.2401219,0.0854095238 L12.2269663,0.0854095238 C10.720414,0.0854095238 9.43925841,1.18379048 9.20484571,2.67574286 L0.301671111,59.321981 C0.12496,60.4393619 0.98687746,61.4472667 2.11746794,61.4472667 L12.6263695,61.4472667 C14.1329219,61.4472667 15.4140775,60.3488857 15.6484902,58.8533143 L18.0494171,43.5755048 C18.2811251,42.0799333 19.565887,40.9815524 21.068833,40.9815524 L28.0381029,40.9815524 C42.5383314,40.9815524 50.9068648,33.9397905 53.0923124,19.9865524 C54.0768457,13.881219 53.134687,9.08417143 50.2856711,5.72479048 C47.1571632,2.03607619 41.6078933,0.0854095238 34.2401219,0.0854095238 M36.7798933,20.7746 C35.5753727,28.7003143 29.5410489,28.7003143 23.7050743,28.7003143 L20.3836267,28.7003143 L22.7133283,13.8975048 C22.8521727,13.0026952 23.624833,12.3431238 24.5264203,12.3431238 L26.0482997,12.3431238 C30.0233981,12.3431238 33.7730997,12.3431238 35.7106108,14.6176952 C36.8664457,15.9739333 37.2207695,17.9897429 36.7798933,20.7746" id="Fill-1"></path>
                <path d="M100.041029,20.5189143 L89.4996698,20.5189143 C88.6016889,20.5189143 87.8263238,21.1784857 87.6874794,22.0723905 L87.2204571,25.0318667 L86.4838603,23.958819 C84.2019429,20.6347238 79.1124825,19.5236762 74.0338413,19.5236762 C62.3844317,19.5236762 52.4354159,28.3776762 50.4979048,40.7982476 C49.4908317,46.9922476 50.923454,52.9166286 54.425219,57.0486762 C57.6375746,60.8468667 62.2329651,62.4292952 67.7019937,62.4292952 C77.088419,62.4292952 82.292381,56.372819 82.292381,56.372819 L81.822654,59.3123905 C81.6459429,60.4370095 82.5087619,61.4440095 83.6321397,61.4440095 L93.1267556,61.4440095 C94.6369143,61.4440095 95.9117587,60.3456286 96.1497778,58.8509619 L101.846908,22.6442 C102.027225,21.5304381 101.167111,20.5189143 100.041029,20.5189143 M85.3478603,41.1076762 C84.3299683,47.150581 79.550654,51.2075333 73.4541206,51.2075333 C70.3932317,51.2075333 67.9463238,50.2231524 66.3757587,48.3557238 C64.8187175,46.5018667 64.225473,43.8626762 64.721346,40.9231048 C65.6707175,34.9317714 70.5320762,30.741819 76.5348444,30.741819 C79.5281143,30.741819 81.9614984,31.7406762 83.5645206,33.6234857 C85.1702476,35.5252952 85.8076698,38.1807714 85.3478603,41.1076762" id="Fill-3"></path>
                <path d="M156.182419,20.5189143 L145.58967,20.5189143 C144.57899,20.5189143 143.628717,21.0228667 143.05621,21.8661048 L128.445987,43.4627714 L122.252984,22.7084381 C121.8644,21.4101048 120.669797,20.5189143 119.317416,20.5189143 L108.90859,20.5189143 C107.643663,20.5189143 106.764616,21.7593429 107.167625,22.9545333 L118.835067,57.315581 L107.865454,72.8557714 C107.002635,74.080819 107.871765,75.7627714 109.362089,75.7627714 L119.943117,75.7627714 C120.946584,75.7627714 121.88694,75.2714857 122.456743,74.4454381 L157.688971,23.4096286 C158.531956,22.1891048 157.666432,20.5189143 156.182419,20.5189143" id="Fill-5"></path>
                <path d="M191.253624,0.0854095238 L169.237764,0.0854095238 C167.734818,0.0854095238 166.453662,1.18379048 166.218348,2.67574286 L157.315173,59.321981 C157.138462,60.4393619 158.00038,61.4472667 159.123757,61.4472667 L170.42245,61.4472667 C171.471897,61.4472667 172.369878,60.6791238 172.533065,59.6314095 L175.060215,43.5755048 C175.291923,42.0799333 176.576684,40.9815524 178.07963,40.9815524 L185.044392,40.9815524 C199.548227,40.9815524 207.914056,33.9397905 210.102208,19.9865524 C211.09125,13.881219 210.140977,9.08417143 207.292862,5.72479048 C204.167059,2.03607619 198.621396,0.0854095238 191.253624,0.0854095238 M193.793396,20.7746 C192.592481,28.7003143 186.558157,28.7003143 180.718577,28.7003143 L177.400735,28.7003143 L179.734043,13.8975048 C179.872888,13.0026952 180.639237,12.3431238 181.542627,12.3431238 L183.065408,12.3431238 C187.0369,12.3431238 190.790208,12.3431238 192.728621,14.6176952 C193.883554,15.9739333 194.235173,17.9897429 193.793396,20.7746" id="Fill-7"></path>
                <path d="M257.051916,20.5189143 L246.515967,20.5189143 C245.612577,20.5189143 244.842621,21.1784857 244.708284,22.0723905 L244.241262,25.0318667 L243.501059,23.958819 C241.21824,20.6347238 236.133288,19.5236762 231.053745,19.5236762 C219.405237,19.5236762 209.458926,28.3776762 207.521415,40.7982476 C206.517046,46.9922476 207.943357,52.9166286 211.445123,57.0486762 C214.663789,60.8468667 219.25377,62.4292952 224.722799,62.4292952 C234.108323,62.4292952 239.313186,56.372819 239.313186,56.372819 L238.843459,59.3123905 C238.665846,60.4370095 239.528665,61.4440095 240.658354,61.4440095 L250.151167,61.4440095 C251.654113,61.4440095 252.935269,60.3456286 253.169681,58.8509619 L258.870418,22.6442 C259.044424,21.5304381 258.181605,20.5189143 257.051916,20.5189143 M242.357846,41.1076762 C241.347167,47.150581 236.56064,51.2075333 230.465008,51.2075333 C227.41043,51.2075333 224.957211,50.2231524 223.386646,48.3557238 C221.829605,46.5018667 221.242672,43.8626762 221.732234,40.9231048 C222.688818,34.9317714 227.542964,30.741819 233.545732,30.741819 C236.5381,30.741819 238.971484,31.7406762 240.575408,33.6234857 C242.187446,35.5252952 242.824869,38.1807714 242.357846,41.1076762" id="Fill-9"></path>
                <path d="M269.479576,1.63906667 L260.44477,59.3212571 C260.267157,60.4395429 261.129976,61.4474476 262.252452,61.4474476 L271.336846,61.4474476 C272.846103,61.4474476 274.127258,60.3490667 274.358966,58.8534952 L283.268452,2.21087619 C283.445163,1.09259048 282.582344,0.0819714286 281.458966,0.0819714286 L271.28816,0.0819714286 C270.390179,0.0855904762 269.617519,0.744257143 269.479576,1.63906667" id="Fill-11"></path>
            </g>
        </g>
    </g>
</svg>