<svg id="Layer_1" data-name="Layer 1" xmlns="http://www.w3.org/2000/svg" viewBox="0 0 338.33 100"><defs><style>.cls-1,.cls-2{fill:#7f7f7f;}.cls-1{opacity:0;}</style></defs><title>Untitled-1</title><rect class="cls-1" width="338.67" height="100"/><path class="cls-2" d="M334.05,68.24c0-.67-.58-.92-1.17-.92h-1.11v3.14h.57V69.15h.41l.73,1.31h.69l-.85-1.37a.84.84,0,0,0,.73-.85Zm-1.71.45V67.8h.52c.29,0,.62.08.62.43s-.37.46-.68.46Zm.53-2.58a2.78,2.78,0,1,0,2.8,2.79A2.79,2.79,0,0,0,332.87,66.11Zm0,5.15a2.36,2.36,0,1,1,2.36-2.36,2.37,2.37,0,0,1-2.36,2.36ZM152.66,66.59c-4.09,0-6.16-3.66-6.16-7.2s2.24-7,6-7a6.48,6.48,0,0,1,4.81,2.11l4.34-4.33a12.6,12.6,0,0,0-9.15-3.53c-7.54,0-13,5.42-13,12.87s5.41,12.88,13.17,12.88c3.68,0,7.09-1.08,9.11-3.26l-4.21-4.52a6.76,6.76,0,0,1-4.86,2Zm-24.25,5.06h6.73V47.28h-6.73Zm-12.24-11c0,2.86-1.87,6-5.35,6-2.68,0-4.11-1.92-4.11-5.85V47.28H100V62.4c0,5,2.51,9.94,9.22,9.94,3.17,0,5.82-2.5,7.16-4.34h.1v3.65h6.44V47.28h-6.73V60.64ZM87.84,50.37h-.15A10.41,10.41,0,0,0,80,46.59c-6.86,0-12.15,5.37-12.15,12.78s4.88,13,11.83,13a10.93,10.93,0,0,0,7.83-3.62h.1V83.65h6.73V47.28H87.84v3.09ZM81.3,66.59c-4.16,0-6.53-3.64-6.53-7.22S77,52.24,81.3,52.24c4,0,6.49,3.75,6.49,7.22s-2.43,7.13-6.49,7.13Zm153.3-20c-7.66,0-13.22,5.37-13.22,12.78,0,7.66,5.68,13,13.22,13s13.21-5.43,13.21-13c0-7.41-5.55-12.78-13.21-12.78Zm0,20c-4.39,0-6.39-3.75-6.39-7.22s2-7.13,6.39-7.13S241,55.93,241,59.37s-2,7.22-6.39,7.22Zm84.14-9.94c-3.46-.83-4.69-1.27-4.69-2.68,0-1.93,2.46-2.35,3.56-2.35A7.52,7.52,0,0,1,323,54.05l4-3.81c-1.84-2.31-5.45-3.65-9.26-3.65-4.87,0-10,2.45-10,7.92,0,4.7,3.68,6.12,7.29,7,3.79.89,5.15,1.53,5.15,3.07,0,2.25-2.56,2.62-3.44,2.62a8.74,8.74,0,0,1-6.13-2.89l-4.09,4.14a13.69,13.69,0,0,0,10,4c6.58,0,10.49-3.13,10.49-8.31,0-4.95-4.78-6.62-8.18-7.43ZM306,47.28h-8.68l-8.69,10.11h-.15V33.85h-6.73v37.8h6.73v-12h.15l9,12h8.86L296,58.33l10-11Zm-99.8-.69c-3.08,0-5.35,1.35-7.49,3.35h-.13V33.85h-6.72v37.8h6.43V68.2h.1a9.1,9.1,0,0,0,7.66,4.14c7,0,12.21-5.46,12.21-13s-5.2-12.78-12.06-12.78Zm-1.33,20c-4.06,0-6.48-3.63-6.48-7.13s2.48-7.22,6.48-7.22c4.36,0,6.52,3.69,6.52,7.13s-2.35,7.21-6.52,7.21ZM189.34,47.28h-8.68L172,57.39h-.15V33.85h-6.73v37.8h6.73v-12H172l9,12h8.86L179.37,58.33l10-11Zm74.83-.69C256.51,46.59,251,52,251,59.37c0,7.65,5.68,13,13.21,13s13.22-5.43,13.22-13c0-7.41-5.56-12.78-13.22-12.78Zm0,20c-4.39,0-6.39-3.75-6.39-7.22s2-7.13,6.39-7.13,6.39,3.69,6.39,7.13-2,7.21-6.39,7.21Z"/><path class="cls-2" d="M31.91,19.68A28.35,28.35,0,1,0,60.26,48,28.35,28.35,0,0,0,31.91,19.68ZM30.34,66.61a4.1,4.1,0,0,1-4.1-4.09V41.1H22.46a6.93,6.93,0,0,0,0,13.86H24v4.09H22.46a11,11,0,1,1,0-22h7.88Zm11-7.56H33.48V29.44a4.11,4.11,0,0,1,4.1,4.1V55h3.78a6.93,6.93,0,0,0,0-13.86H39.79V37h1.57a11,11,0,1,1,0,22Z"/><path class="cls-2" d="M95.58,26.13a1.87,1.87,0,1,0-1.87-1.87A1.88,1.88,0,0,0,95.58,26.13ZM84.41,27.4a4.21,4.21,0,0,0-3.85,2.35h0v-2h-3v12.4h3.1V33.34c0-1.65.93-3.36,2.89-3.36s2.33,1.83,2.33,3.31v6.87H89V32.41c0-2.53-1.34-5-4.57-5ZM71.28,40.16h3.1V27.76h-3.1Zm56.38-14a1.87,1.87,0,1,0-1.87-1.87,1.87,1.87,0,0,0,1.87,1.87Zm-5,1.62V30.5h3.48v9.66h3.1V30.5h3.48V27.75Zm-5.27,12.41h3.1V27.76h-3.1v12.4ZM90.56,30.5H94v9.66h3.1V30.5h3.48V27.75h-10V30.5Zm20.53,4.08c0,1.65-.93,3.36-2.9,3.36s-2.32-1.84-2.32-3.31V27.76h-3.1v7.75c0,2.53,1.34,5,4.57,5a4.21,4.21,0,0,0,3.85-2.35h0v2h3V27.76h-3.1v6.82Z"/></svg>