<svg id="Layer_1" data-name="Layer 1" xmlns="http://www.w3.org/2000/svg" viewBox="0 0 258.67 100"><defs><style>.cls-1{fill:#7f7f7f;opacity:0;}.cls-2{fill:gray;}</style></defs><title>Untitled-1</title><rect class="cls-1" x="-0.93" y="-0.35" width="260.47" height="100"/><g id="Synchrony"><path id="path4818" class="cls-2" d="M43.5,26H33.2v27.2H43.5ZM13.15,53.17H2.83V80.36H13.15ZM28.33,80.36H18V26H28.33V80.36Z"/><path id="path4822" class="cls-2" d="M93.94,40.14,86.66,60.21,78.17,40.14H74.69L84.82,64.45,81.65,74h3.52L97.36,40.14Zm158.8,0-7.27,20.07L237,40.14h-3.48l10.13,24.31L240.45,74H244l12.2-33.85ZM65.79,50.43c-5.34-.9-6.28-1.87-6.28-3.85s2.17-3.53,5.28-3.53,5.09,1.2,5.61,3.8l0,.14h3.51l-.08-.48c-.71-4.3-3.91-6.67-9-6.67s-8.77,2.83-8.77,6.74c0,5.11,4.26,6.26,9,7.06,4.46.79,5.83,1.42,5.83,4.11,0,2.47-2.19,4-5.6,4-4.65,0-6.08-2.49-6.45-4.68H55.26c.44,4.86,4.28,7.89,10,7.89,5.37,0,9.12-3,9.12-7.3,0-5.3-4.08-6.44-8.62-7.23Zm118-10.63a10,10,0,0,0-7.27,3V40.14h-3.35V64.57h3.35V50a6.77,6.77,0,0,1,7.06-6.92,7.21,7.21,0,0,1,2.34.34V40a11.88,11.88,0,0,0-2.13-.19Zm-49.3,21.87c-4.69,0-8.1-3.84-8.1-9.12v-.34c0-5.31,3.42-9.16,8.14-9.16a7.59,7.59,0,0,1,7.15,4.7h3.6a11,11,0,0,0-10.75-7.91c-6.58,0-11.54,5.32-11.54,12.37v.34c0,6.93,5,12.36,11.46,12.36a11.4,11.4,0,0,0,11.18-9.33h-3.47a7.79,7.79,0,0,1-7.67,6.09ZM223.67,39.8a10,10,0,0,0-7.27,3V40.14h-3.35V64.57h3.35V50a6.77,6.77,0,0,1,7-6.92c3.9,0,5.71,2.1,5.71,6.62v14.9h3.35V49.71c0-6.39-3.14-9.91-8.84-9.91ZM205.88,52.51v-.35c0-5.37-3.3-9.11-8-9.11s-8.14,3.85-8.14,9.16v.34c0,5.28,3.41,9.12,8.1,9.12s8.07-3.77,8.07-9.16Zm3.4-.35v.35c0,7.07-4.95,12.4-11.51,12.4s-11.46-5.43-11.46-12.36v-.34c0-7.05,5-12.37,11.54-12.37S209.28,45,209.28,52.16ZM159.41,39.8a10,10,0,0,0-7.26,3V29.4h-3.36V64.57h3.36V50a6.76,6.76,0,0,1,7-6.92c3.89,0,5.7,2.1,5.7,6.62v14.9h3.36V49.71c0-6.39-3.14-9.91-8.85-9.91Zm-39.73,9.91V64.57h-3.36V49.67c0-4.52-1.81-6.62-5.7-6.62A6.76,6.76,0,0,0,103.57,50v14.6h-3.36V40.14h3.36v2.67a10,10,0,0,1,7.26-3c5.71,0,8.85,3.52,8.85,9.91Z"/></g></svg>