<?xml version="1.0" encoding="UTF-8"?>
<svg width="543px" height="156px" viewBox="0 0 543 156" version="1.1" xmlns="http://www.w3.org/2000/svg" xmlns:xlink="http://www.w3.org/1999/xlink">
    <!-- Generator: Sketch 53.2 (72643) - https://sketchapp.com -->
    <title>Intuit</title>
    <desc>Created with Sketch.</desc>
    <defs>
        <path d="M314.708135,49 L314.708135,111.236966 L325.329565,111.236966 L325.329565,105.565029 L325.499755,105.565029 C327.99846,109.662714 332.972662,112.363636 338.132526,112.363636 C349.597172,112.363636 358.292355,103.381141 358.292355,91.0109166 C358.292355,78.8336157 349.697739,69.9823075 338.380076,69.9823075 C333.289835,69.9823075 329.553381,72.1970638 326.018062,75.5076228 L325.809192,75.5076228 L325.809192,49 L314.708135,49 Z M325.492019,91.172972 C325.492019,85.4547337 329.584325,79.288914 336.190808,79.288914 C343.377485,79.288914 346.951484,85.3698475 346.951484,91.0109166 C346.951484,96.914361 343.060312,102.894975 336.190808,102.894975 C329.49923,102.894975 325.492019,96.9375118 325.492019,91.172972 Z M463.052296,49.0077169 L463.052296,111.236966 L474.161089,111.236966 L474.161089,91.4507811 L474.400903,91.4507811 L489.284829,111.236966 L503.890262,111.236966 L486.608198,89.3131941 L503.062518,71.1166949 L488.743314,71.1166949 L474.400903,87.762093 L474.161089,87.762093 L474.161089,49.0077169 L463.052296,49.0077169 Z M270.512777,49.0077169 L270.512777,111.236966 L281.62157,111.236966 L281.62157,91.4507811 L281.869119,91.4507811 L296.745309,111.236966 L311.358478,111.236966 L294.068678,89.3131941 L310.530734,71.1166949 L296.21153,71.1166949 L281.869119,87.762093 L281.62157,87.762093 L281.62157,49.0077169 L270.512777,49.0077169 Z M505.808772,83.0239036 C505.808772,90.7639752 511.881476,93.0944852 517.830405,94.5221156 C524.104243,95.9728967 526.33219,97.0378317 526.33219,99.5535479 C526.33219,103.273104 522.116109,103.88274 520.661754,103.88274 C517.025868,103.88274 512.817523,101.806889 510.54316,99.1136834 L503.812903,105.935441 C507.487468,110.009976 513.79225,112.456239 520.259486,112.456239 C531.120729,112.456239 537.557022,107.301336 537.557022,98.7818558 C537.557022,90.6250706 529.674111,87.8778468 524.065563,86.5428195 C518.340976,85.1769245 516.33737,84.451534 516.33737,82.1364577 C516.33737,78.9570864 520.375525,78.2548466 522.20894,78.2548466 C525.643692,78.2548466 529.5426,80.3075475 531.012426,82.2522116 L537.564758,75.9937888 C534.532274,72.1970638 528.567873,69.9823075 522.286299,69.9823075 C514.24867,69.9823075 505.808772,74.0182571 505.808772,83.0239036 Z M412.211775,91.0109166 C412.211775,103.628082 421.587721,112.471673 434.011621,112.471673 C446.450994,112.471673 455.819203,103.535479 455.819203,91.0109166 C455.819203,78.8336157 446.652128,69.9823075 434.011621,69.9823075 C421.37885,69.9823075 412.211775,78.8336157 412.211775,91.0109166 Z M423.475287,91.0109166 C423.475287,85.3698475 426.770792,79.288914 434.011621,79.288914 C441.25245,79.288914 444.555692,85.3698475 444.555692,91.0109166 C444.555692,96.7368718 441.25245,102.894975 434.011621,102.894975 C426.770792,102.894975 423.475287,96.7368718 423.475287,91.0109166 Z M228.197249,91.1806889 C228.197249,103.651233 237.132246,112.371353 249.919735,112.371353 C256.007911,112.371353 261.639667,110.588745 264.966116,107.01581 L258.011516,99.5612648 C256.402443,101.513646 253.029579,102.902692 250.004831,102.902692 L250.004831,102.894975 C243.235893,102.894975 239.832085,96.8757764 239.832085,91.0495012 C239.832085,85.223226 243.529859,79.4509693 249.679922,79.4509693 C252.557687,79.4509693 256.193573,80.8940335 257.62472,82.9158667 L264.78819,75.8008658 C261.322494,72.1584792 255.799041,69.9823075 249.679922,69.9823075 C237.232813,69.9823075 228.197249,78.9030679 228.197249,91.1806889 Z M110,91.0109166 C110,103.381141 118.053101,112.363636 129.525483,112.363636 C134.724027,112.363636 139.613134,109.608696 142.444483,106.41389 L142.614674,106.41389 L142.614674,131 L153.715731,131 L153.715731,71.1166949 L143.024678,71.1166949 L143.024678,76.2098626 L142.769392,76.2098626 C141.198999,74.4735554 136.95971,69.9823075 130.051526,69.9823075 C118.726127,69.9823075 110,78.8336157 110,91.0109166 Z M121.464646,91.0109166 C121.464646,85.3698475 125.046381,79.288914 132.233058,79.288914 C138.847277,79.288914 142.939583,85.4547337 142.939583,91.1806889 C142.939583,96.9375118 138.940108,102.894975 132.240794,102.894975 L132.233058,102.894975 C125.363554,102.894975 121.464646,96.914361 121.464646,91.0109166 Z M363.398068,91.0109166 C363.398068,103.628082 372.781749,112.471673 385.20565,112.471673 C397.645022,112.471673 407.020968,103.543196 407.020968,91.0109166 C407.020968,78.8336157 397.846157,69.9823075 385.213386,69.9823075 C372.580615,69.9823075 363.398068,78.8336157 363.398068,91.0109166 Z M374.669315,91.0109166 C374.669315,85.3698475 377.972557,79.288914 385.213386,79.288914 C392.454215,79.288914 395.757456,85.3698475 395.757456,91.0109166 C395.757456,96.7368718 392.454215,102.894975 385.213386,102.894975 C377.972557,102.894975 374.669315,96.7368718 374.669315,91.0109166 Z M209.971402,111.236966 L221.080195,111.236966 L221.080195,71.1166949 L209.971402,71.1166949 L209.971402,111.236966 Z M189.765157,71.1166949 L189.765157,93.1099191 L189.772893,93.1099191 C189.772893,97.8249577 186.701729,102.902692 180.953934,102.902692 C176.528983,102.902692 174.169525,99.7464709 174.169525,93.2719744 L174.169525,71.1166949 L163.052996,71.1166949 L163.052996,96.0114813 C163.052996,104.299454 167.199454,112.363636 178.277303,112.363636 C183.506791,112.363636 187.885326,108.265951 190.097802,105.233202 L190.260256,105.233202 L190.260256,111.236966 L200.87395,111.236966 L200.87395,71.1166949 L189.765157,71.1166949 Z M542.755566,106.71485 C542.755566,109.261434 544.821059,111.267834 547.373915,111.267834 C549.926771,111.267834 552,109.261434 552,106.71485 C552,104.168267 549.926771,102.123283 547.373915,102.123283 C544.821059,102.123283 542.755566,104.168267 542.755566,106.71485 Z M543.482743,106.71485 C543.482743,104.569546 545.231063,102.833239 547.373915,102.833239 C549.524503,102.833239 551.272823,104.569546 551.272823,106.71485 C551.272823,108.84472 549.524503,110.596462 547.373915,110.596462 C545.231063,110.596462 543.482743,108.84472 543.482743,106.71485 Z M545.57918,104.106531 L545.57918,109.284585 L546.507491,109.284585 L546.507491,107.11613 L547.180517,107.11613 L548.395057,109.284585 L549.524503,109.284585 L548.132036,107.01581 C548.859213,106.853755 549.323369,106.367589 549.323369,105.626765 C549.323369,104.515528 548.37185,104.106531 547.397123,104.106531 L545.57918,104.106531 Z M546.507491,104.893657 L547.358443,104.893657 C547.838071,104.893657 548.395057,105.032562 548.395057,105.603614 C548.395057,106.228684 547.783919,106.367589 547.257876,106.367589 L546.507491,106.367589 L546.507491,104.893657 Z" id="path-1"></path>
        <path d="M205.537751,33.0868666 C205.537751,34.8086867 206.931598,36.197001 208.652493,36.197001 C210.3656,36.197001 211.759447,34.8086867 211.759447,33.0868666 C211.759447,31.3805584 210.3656,30 208.652493,30 C206.931598,30 205.537751,31.3805584 205.537751,33.0868666 Z M152.260096,33.0868666 C152.260096,34.8086867 153.653943,36.197001 155.367051,36.197001 C157.087946,36.197001 158.489579,34.8086867 158.489579,33.0868666 C158.489579,31.3805584 157.095732,30 155.367051,30 C153.653943,30 152.260096,31.3805584 152.260096,33.0868666 Z M130.410184,42.1690796 L130.332315,42.1690796 L130.332315,38.8728025 L125.434384,38.8728025 L125.434384,59.4027921 L130.589282,59.4027921 L130.589282,48.1101344 C130.589282,45.3722854 132.131079,42.5568769 135.378197,42.5568769 C138.68761,42.5568769 139.240476,45.5894519 139.240476,48.024819 L139.240476,59.4027921 L144.403161,59.4027921 L144.403161,46.5744571 C144.403161,42.3862461 142.168333,38.2833506 136.803191,38.2833506 C133.750744,38.2833506 131.305672,40.1215098 130.410184,42.1690796 Z M200.297198,38.8728025 L200.297198,43.417787 L206.075044,43.417787 L206.075044,59.3950362 L211.229941,59.3950362 L211.229941,43.417787 L217,43.417787 L217,38.8728025 L200.297198,38.8728025 Z M147.011757,38.8728025 L147.011757,43.417787 L147.019543,43.417787 L152.797389,43.417787 L152.797389,59.4027921 L157.9445,59.4027921 L157.9445,43.417787 L163.714558,43.417787 L163.714558,38.8728025 L147.011757,38.8728025 Z M191.536988,38.8728025 L191.536988,59.4027921 L191.536988,59.3950362 L196.691885,59.3950362 L196.691885,38.8728025 L191.536988,38.8728025 Z M181.125964,38.8728025 L181.125964,50.1654602 C181.125964,52.9033092 179.584167,55.7187177 176.313688,55.7187177 C173.012062,55.7187177 172.451409,52.6938987 172.451409,50.2507756 L172.451409,38.8728025 L167.304298,38.8728025 L167.304298,51.7011375 C167.304298,55.8971044 169.531338,60 174.904268,60 C177.941141,60 180.394,58.1618407 181.289488,56.106515 L181.38293,56.106515 L181.38293,59.4027921 L186.273074,59.4027921 L186.273074,38.8728025 L181.125964,38.8728025 Z M115,59.4027921 L120.14711,59.4027921 L120.14711,38.8805584 L115,38.8805584 L115,59.4027921 Z" id="path-3"></path>
        <path d="M81.9418223,46.9658106 C81.9418223,36.6443333 73.3643637,28.2470045 62.8232718,28.2470045 L61.0734581,28.2470045 L61.0734581,34.8227221 L62.8232718,34.8227221 C69.6611024,34.8227221 75.2247338,40.2704455 75.2247338,46.9658106 C75.2247338,53.6626033 69.6611024,59.1103267 62.8232718,59.1103267 L56.8160093,59.1103267 L56.8160093,19.1930931 L50.0989208,19.1930931 L50.0989208,65.6860647 L62.8232718,65.6860647 C73.3643637,65.6860647 81.9418223,57.2887155 81.9418223,46.9658106 L81.9418223,46.9658106 Z M45.8283731,28.2470045 L33.1040018,28.2470045 C22.5629099,28.2470045 13.9869181,36.6443333 13.9869181,46.9658106 C13.9869181,57.2887155 22.5629099,65.6860647 33.1040018,65.6860647 L34.8538155,65.6860647 L34.8538155,59.1103267 L33.1040018,59.1103267 C26.2661916,59.1103267 20.7025602,53.6626033 20.7025602,46.9658106 C20.7025602,40.2704455 26.2661916,34.8227221 33.1040018,34.8227221 L39.1112846,34.8227221 L39.1112846,74.7385486 L45.8283731,74.7385486 L45.8283731,28.2470045 L45.8283731,28.2470045 Z M96,46.9999898 C96,72.9582339 74.5091018,94 48,94 C21.4894518,94 0,72.9582339 0,46.9999898 C0,21.0431733 21.4894518,0 48,0 C74.5091018,0 96,21.0431733 96,46.9999898 L96,46.9999898 Z" id="path-5"></path>
    </defs>
    <g id="Intuit" stroke="none" stroke-width="1" fill="none" fill-rule="evenodd">
        <mask id="mask-2" fill="white">
            <use xlink:href="#path-1"></use>
        </mask>
        <g id="path-1"></g>
        <polygon id="Fill-20" fill="#7F7F7F" fill-rule="nonzero" mask="url(#mask-2)" points="105 136 558 136 558 44 105 44"></polygon>
        <path d="M155.996245,36 C157.65582,36 159,34.6558198 159,32.9962453 C159,31.3366708 157.663329,30 155.996245,30 C154.336671,30 153,31.3366708 153,32.9962453 C153,34.6558198 154.336671,36 155.996245,36 Z" id="Fill-29-path" fill="#7F7F7F" fill-rule="nonzero" mask="url(#mask-2)"></path>
        <path d="M137.387521,38 C134.337849,38 131.880952,39.8277635 130.98399,41.8714653 L130.898194,41.8714653 L130.898194,38.5938303 L126,38.5938303 L126,59 L131.155583,59 L131.155583,47.7789203 C131.155583,45.0565553 132.707718,42.2493573 135.96798,42.2493573 C139.275041,42.2493573 139.836617,45.2647815 139.836617,47.6940874 L139.836617,59 L145,59 L145,46.2442159 C145,42.0796915 142.761494,38 137.379721,38 L137.387521,38 Z" id="Fill-29-path" fill="#7F7F7F" fill-rule="nonzero" mask="url(#mask-2)"></path>
        <polygon id="Fill-29-path" fill="#7F7F7F" fill-rule="nonzero" mask="url(#mask-2)" points="116 60 121 60 121 39 116 39"></polygon>
        <path d="M209.003755,36 C210.65582,36 212,34.6558198 212,32.9962453 C212,31.3366708 210.65582,30 209.003755,30 C207.34418,30 206,31.3366708 206,32.9962453 C206,34.6558198 207.34418,36 209.003755,36 Z" id="Fill-29-path" fill="#7F7F7F" fill-rule="nonzero" mask="url(#mask-2)"></path>
        <polygon id="Fill-29-path" fill="#7F7F7F" fill-rule="nonzero" mask="url(#mask-2)" points="200 39 200 43.6507937 205.875466 43.6507937 205.875466 60 211.124534 60 211.124534 43.6507937 217 43.6507937 217 39"></polygon>
        <polygon id="Fill-29-path" fill="#7F7F7F" fill-rule="nonzero" mask="url(#mask-2)" points="192 59.9920635 197 59.9920635 197 39 192 39 192 60"></polygon>
        <polygon id="Fill-29-path" fill="#7F7F7F" fill-rule="nonzero" mask="url(#mask-2)" points="147.007929 43.6490366 152.883396 43.6490366 152.883396 60 158.124534 60 158.124534 43.6490366 164 43.6490366 164 39 147 39 147 43.6490366"></polygon>
        <path d="M181.844417,50.2210797 C181.844417,52.9434447 180.292282,55.7506427 177.02422,55.7506427 C173.717159,55.7506427 173.155583,52.7275064 173.155583,50.3059126 L173.155583,39 L168,39 L168,51.7557841 C168,55.9203085 170.230706,60 175.612479,60 C178.654351,60 181.111248,58.1722365 182.00821,56.1285347 L182.101806,56.1285347 L182.101806,59.4061697 L187,59.4061697 L187,39 L181.844417,39 L181.844417,50.2210797 Z" id="Fill-29-path" fill="#7F7F7F" fill-rule="nonzero" mask="url(#mask-2)"></path>
        <mask id="mask-4" fill="white">
            <use xlink:href="#path-3"></use>
        </mask>
        <g id="path-7"></g>
        <polygon id="Fill-31" fill="#7F7F7F" fill-rule="nonzero" mask="url(#mask-4)" points="110 66 222 66 222 25 110 25"></polygon>
        <g id="Group-33" transform="translate(6.000000, 29.000000)">
            <mask id="mask-6" fill="white">
                <use xlink:href="#path-5"></use>
            </mask>
            <g id="Clip-32"></g>
            <polygon id="Fill-31" fill="#7F7F7F" mask="url(#mask-6)" points="-10 -10 106 -10 106 104 -10 104"></polygon>
        </g>
    </g>
</svg>