<?xml version="1.0" encoding="UTF-8"?>
<svg width="294px" height="156px" viewBox="0 0 294 156" version="1.1" xmlns="http://www.w3.org/2000/svg" xmlns:xlink="http://www.w3.org/1999/xlink">
    <!-- Generator: Sketch 53.2 (72643) - https://sketchapp.com -->
    <title>Paypal</title>
    <desc>Created with Sketch.</desc>
    <g id="Paypal" stroke="none" stroke-width="1" fill="none" fill-rule="evenodd">
        <g id="LingoAsset-(8)" transform="translate(15.000000, 43.000000)" fill="#808080">
            <path d="M31.9238977,0 L11.2314733,0 C9.8153101,0 8.61102049,1.02030345 8.39067193,2.40620162 L0.0216642687,55.0257885 C-0.144444643,56.0637413 0.665760049,57 1.72851809,57 L11.6069134,57 C13.0230766,57 14.2273662,55.9796966 14.4477147,54.5904366 L16.7045925,40.3986376 C16.9223985,39.0093776 18.1300781,37.9890742 19.5428514,37.9890742 L26.0939834,37.9890742 C39.7242366,37.9890742 47.5906801,31.4478701 49.6450066,18.4864865 C50.5704706,12.8151458 49.6848389,8.35909232 47.0067564,5.2385102 C44.0659507,1.81200513 38.8496224,0 31.9238977,0 M34.3112896,19.2185164 C33.179037,26.5808378 27.5067567,26.5808378 22.0209251,26.5808378 L18.8987556,26.5808378 L21.0886812,12.8302738 C21.2191954,11.9990711 21.9454981,11.3863847 22.7929926,11.3863847 L24.2235632,11.3863847 C27.9601662,11.3863847 31.4848956,11.3863847 33.3061612,13.4992701 C34.3926491,14.7591012 34.7257144,16.6316185 34.3112896,19.2185164" id="Fill-1"></path>
            <path d="M93.3007171,18.9278394 L83.5115135,18.9278394 C82.6776059,18.9278394 81.9575653,19.5427439 81.8286278,20.3761124 L81.3949289,23.1351693 L80.7108903,22.1347898 C78.5917939,19.0358062 73.8654807,18 69.1492145,18 C58.3310225,18 49.0918964,26.2543967 47.2926321,37.8338324 C46.3574165,43.6083674 47.6878172,49.1315423 50.9397216,52.9837628 C53.9228667,56.5247354 58.1903634,58 63.2691617,58 C71.9858397,58 76.8184846,52.3536755 76.8184846,52.3536755 L76.3822739,55.0941757 C76.2181716,56.1426342 77.0194261,57.081439 78.0626478,57.081439 L86.8797966,57.081439 C88.2822013,57.081439 89.4660821,56.0574417 89.6871178,54.6639956 L94.977742,20.9091983 C95.1451933,19.8708616 94.3464506,18.9278394 93.3007171,18.9278394 M79.655947,38.1223061 C78.7106844,43.7559782 74.2723874,47.538189 68.6108585,47.538189 C65.7683725,47.538189 63.4960582,46.6204715 62.0375573,44.8795074 C60.5916152,43.1511956 60.0407004,40.6907343 60.5011915,37.9502341 C61.3828227,32.3646409 65.89731,28.458437 71.4717642,28.458437 C74.251456,28.458437 76.5112114,29.3896504 77.9998536,31.1449538 C79.4910075,32.9179706 80.0829479,35.3936148 79.655947,38.1223061" id="Fill-3"></path>
            <path d="M146.269225,19 L136.289948,19 C135.337802,19 134.442563,19.4743609 133.903212,20.268085 L120.139132,40.5966197 L114.304792,21.0609574 C113.938713,19.8388608 112.813294,19 111.539236,19 L101.733231,19 C100.541562,19 99.7134235,20.167592 100.093093,21.2926022 L111.084822,53.6360078 L100.750507,68.2636958 C99.9376578,69.41681 100.756453,71 102.160465,71 L112.1287,71 C113.074052,71 113.959947,70.537562 114.496751,69.760019 L147.688526,21.7209748 C148.48269,20.5721188 147.667292,19 146.269225,19" id="Fill-5"></path>
            <path d="M178.925257,0 L158.229412,0 C156.816579,0 155.612238,1.02030345 155.391033,2.40620162 L147.02167,55.0257885 C146.855554,56.0637413 147.665793,57 148.721816,57 L159.343067,57 C160.329592,57 161.173733,56.2864599 161.327136,55.3132216 L163.702763,40.3986376 C163.920579,39.0093776 165.12831,37.9890742 166.541143,37.9890742 L173.088315,37.9890742 C186.722537,37.9890742 194.586772,31.4478701 196.643728,18.4864865 C197.573469,12.8151458 196.680172,8.35909232 194.002823,5.2385102 C191.064436,1.81200513 185.851276,0 178.925257,0 M181.312751,19.2185164 C180.18384,26.5808378 174.511319,26.5808378 169.021864,26.5808378 L165.902952,26.5808378 L168.096361,12.8302738 C168.226881,11.9990711 168.947282,11.3863847 169.796507,11.3863847 L171.227986,11.3863847 C174.961358,11.3863847 178.489627,11.3863847 180.311817,13.4992701 C181.397504,14.7591012 181.72804,16.6316185 181.312751,19.2185164" id="Fill-7"></path>
            <path d="M239.290396,18.9278394 L229.505792,18.9278394 C228.666825,18.9278394 227.951776,19.5427439 227.82702,20.3761124 L227.393302,23.1351693 L226.705885,22.1347898 C224.585859,19.0358062 219.863527,18 215.146219,18 C204.328395,18 195.09138,26.2543967 193.292038,37.8338324 C192.359294,43.6083674 193.683891,49.1315423 196.935937,52.9837628 C199.925072,56.5247354 204.18773,58 209.266749,58 C217.982967,58 222.816659,52.3536755 222.816659,52.3536755 L222.38043,55.0941757 C222.215483,56.1426342 223.016772,57.081439 224.0659,57.081439 L232.881757,57.081439 C234.277524,57.081439 235.467317,56.0574417 235.685013,54.6639956 L240.979216,20.9091983 C241.140814,19.8708616 240.339524,18.9278394 239.290396,18.9278394 M225.644197,38.1223061 C224.705592,43.7559782 220.260404,47.538189 214.599467,47.538189 C211.762719,47.538189 209.484445,46.6204715 208.025881,44.8795074 C206.579876,43.1511956 206.034798,40.6907343 206.489448,37.9502341 C207.377816,32.3646409 211.885801,28.458437 217.460497,28.458437 C220.239472,28.458437 222.499325,29.3896504 223.988869,31.1449538 C225.485949,32.9179706 226.077915,35.3936148 225.644197,38.1223061" id="Fill-9"></path>
            <path d="M251.317424,1.4463251 L243.02135,55.0250645 C242.858259,56.0637965 243.65053,57 244.681227,57 L253.022834,57 C254.408686,57 255.585088,55.9797567 255.79785,54.5905787 L263.978851,1.97745669 C264.141113,0.938724659 263.348843,0 262.317318,0 L252.978129,0 C252.153572,0.00336159233 251.444088,0.615171397 251.317424,1.4463251" id="Fill-11"></path>
        </g>
    </g>
</svg>