<?xml version="1.0" encoding="UTF-8"?>
<svg width="543px" height="156px" viewBox="0 0 543 156" version="1.1" xmlns="http://www.w3.org/2000/svg" xmlns:xlink="http://www.w3.org/1999/xlink">
    <!-- Generator: Sketch 53.2 (72643) - https://sketchapp.com -->
    <title>Synchrony</title>
    <desc>Created with Sketch.</desc>
    <g id="Synchrony" stroke="none" stroke-width="1" fill="none" fill-rule="evenodd" fill-opacity="0.5">
        <g id="Synchrony_Financial" transform="translate(16.000000, 26.000000)" fill="#000000" fill-rule="nonzero">
            <path d="M84,0 L62.7108251,0 C62.7108251,2.46013386 62.7082549,53.767948 62.7082549,55.4990223 L84,55.4990223 L84,0 Z M21.3009252,55.4990223 L0,55.4990223 L0,111 L21.3009252,111 L21.3009252,55.4990223 Z M52.6540363,111 L31.3505095,111 L31.3505095,0 L52.6514346,0 C52.6514346,2.42272186 52.6540077,108.079247 52.6540363,111 L52.6540363,111 Z" id="path4818"></path>
            <path d="M185.735642,28.6816042 L170.92366,69.1883547 L153.630591,28.6816042 L146.536378,28.6816042 L167.16229,77.7334224 L160.717656,97 L167.882349,97 L192.705954,28.6816042 L185.735642,28.6816042 Z M509.029691,28.6816042 L494.218363,69.1883547 L476.924637,28.6816042 L469.82977,28.6816042 L490.456967,77.7334224 L484.01236,97 L491.176395,97 L516,28.6816042 L509.029691,28.6816042 Z M128.419565,49.4349382 C117.54569,47.6227662 115.647732,45.6604291 115.647732,41.6671961 C115.647732,37.4045203 120.050899,34.5397199 126.396354,34.5397199 C133.03014,34.5397199 136.748466,36.9796585 137.816129,42.2145975 L137.872178,42.4911416 L145.012067,42.4911416 L144.853725,41.5379594 C143.413615,32.8532341 136.890723,28.0708401 126.487103,28.0708401 C116.150025,28.0708401 108.648155,33.7892982 108.648155,41.6670806 C108.648155,51.9887275 117.304464,54.3041924 126.932579,55.9279507 C136.016757,57.5121903 138.802403,58.7927799 138.802403,64.2161037 C138.802403,69.2027304 134.348358,72.2954631 127.407402,72.2954631 C117.940379,72.2954631 115.022998,67.2594453 114.282051,62.8406866 L107,62.8406866 C107.883743,72.6643521 115.699353,78.7661904 127.407402,78.7661904 C138.346501,78.7661904 145.985328,72.7084894 145.985328,64.0435379 C145.985328,53.3437358 137.679915,51.0282997 128.419648,49.4348227 L128.419565,49.4349382 Z M368.630213,27.9858562 C362.277553,27.9858562 357.198031,30.6273718 353.843008,34.0547575 L353.843008,28.6808248 L347.010291,28.6808248 L347.010291,77.983611 L353.843008,77.983611 L353.843008,48.5218232 C353.843008,41.5741872 358.775106,34.5415674 368.201032,34.5415674 C370.016821,34.5415674 371.601071,34.7759659 372.977275,35.2286264 L372.977275,28.3679374 C371.619992,28.1202601 370.174677,27.9858562 368.630213,27.9858562 L368.630213,27.9858562 Z M268.273903,72.1248602 C258.711671,72.1248602 251.770715,64.3854076 251.770715,53.7218622 L251.770715,53.0282215 C251.770715,42.3152561 258.74754,34.5396045 268.359994,34.5396045 C275.02899,34.5396045 280.299611,38.1804025 282.906542,44.0259901 L290.238174,44.0259901 C287.099685,34.4151019 278.849064,28.0708401 268.359994,28.0708401 C254.958764,28.0708401 244.85125,38.7995957 244.85125,53.0282215 L244.85125,53.7218622 C244.85125,67.7159451 255.101614,78.6772517 268.187158,78.6772517 C279.522163,78.6772517 288.485664,70.9187181 290.939966,59.8461011 L283.87771,59.8461011 C281.81275,67.3029476 275.968844,72.1248602 268.273903,72.1248602 L268.273903,72.1248602 Z M449.835912,27.9838933 C443.483251,27.9838933 438.4031,30.6260728 435.048707,34.0547575 L435.048707,28.6808248 L428.216018,28.6808248 L428.216018,77.9816481 L435.048707,77.9816481 L435.048707,48.5218232 C435.048707,41.5722243 439.982119,34.5396045 449.407416,34.5396045 C457.328664,34.5396045 461.018291,38.7870963 461.018291,47.9138303 L461.018291,77.9816481 L467.849665,77.9816481 L467.849665,47.9974863 C467.849665,35.0942514 461.452674,27.9838933 449.835912,27.9838933 L449.835912,27.9838933 Z M413.621224,53.6349153 L413.621224,52.9425736 C413.621224,42.1064335 406.905263,34.5396045 397.290184,34.5396045 C387.677077,34.5396045 380.699594,42.3152561 380.699594,53.0282215 L380.699594,53.7218622 C380.699594,64.3880344 387.64055,72.1248602 397.203439,72.1248602 C406.870708,72.1248602 413.621224,64.5224383 413.621224,53.6349153 L413.621224,53.6349153 Z M420.541315,52.9425736 L420.541315,53.6349153 C420.541315,67.9109404 410.470331,78.6772517 397.117351,78.6772517 C384.031151,78.6772517 373.780818,67.7159451 373.780818,53.7218622 L373.780818,53.0282215 C373.780818,38.7995957 383.8883,28.0708401 397.290184,28.0708401 C410.763179,28.0708401 420.541315,38.5328086 420.541315,52.9425736 L420.541315,52.9425736 Z M319.025361,27.9838933 C312.671385,27.9838933 307.590577,30.6260728 304.236841,34.0547575 L304.236841,7 L297.40481,7 L297.40481,77.9816481 L304.236841,77.9816481 L304.236841,48.5218232 C304.236841,41.5722243 309.168968,34.5396045 318.596208,34.5396045 C326.518113,34.5396045 330.205768,38.7870963 330.205768,47.9138303 L330.205768,77.9816481 L337.037171,77.9816481 L337.037171,47.9974863 C337.037171,35.0942514 330.641466,27.9838933 319.025361,27.9838933 L319.025361,27.9838933 Z M238.14055,47.9974863 L238.14055,77.9816481 L231.306544,77.9816481 L231.306544,47.9138303 C231.306544,38.7870963 227.617577,34.5396045 219.696958,34.5396045 C210.27235,34.5396045 205.339563,41.5722243 205.339563,48.5218232 L205.339563,77.9816481 L198.505589,77.9816481 L198.505589,28.6808248 L205.339563,28.6808248 L205.339563,34.0547575 C208.693299,30.6260728 213.773481,27.9838933 220.126794,27.9838933 C231.741584,27.9838933 238.14055,35.0942514 238.14055,47.9974863 L238.14055,47.9974863 Z" id="path4822"></path>
        </g>
    </g>
</svg>