<svg width="8" height="8" viewBox="0 0 8 8" xmlns="http://www.w3.org/2000/svg" xmlns:xlink="http://www.w3.org/1999/xlink"><title>Rectangle 29</title><defs><path id="a" d="M0 0h175v150H0z"/></defs><g fill="none" fill-rule="evenodd"><mask id="b" fill="#fff"><use xlink:href="#a"/></mask><use fill="#FFF" xlink:href="#a"/><g mask="url(#b)" stroke-linecap="square" stroke="#DEECF9"><path d="M12-13l-178 178M24-13l-178 178M32-13l-178 178M40-13l-178 178M48-13l-178 178M56-13l-178 178M64-13l-178 178M84-13L-94 165M5-13l-190 191M20-13l-178 178M16-13l-178 178M11-13l-178 178M28-13l-178 178M36-13l-178 178M44-13l-178 178M52-13l-178 178M60-13l-178 178M68-13l-178 178M72-13l-178 178M76-13l-178 178M80-13L-98 165M184-13L6 165M180-13L2 165M176-13L-2 165M172-13L-6 165M168-13L-10 165M164-13L-14 165M160-13L-18 165M156-13L-22 165M152-13L-26 165M148-13L-30 165M144-13L-34 165M140-13L-38 165M136-13L-42 165M132-13L-46 165M128-13L-50 165M124-13L-54 165M120-13L-58 165M116-13L-62 165M112-13L-66 165M108-13L-70 165M104-13L-74 165M100-13L-78 165M96-13L-82 165M92-13L-86 165M88-13L-90 165"/></g></g></svg>