<?xml version="1.0" encoding="utf-8"?>
<!-- Generator: Adobe Illustrator 21.0.0, SVG Export Plug-In . SVG Version: 6.00 Build 0)  -->
<svg width="106" height="30" version="1.1" id="Layer_1" xmlns="http://www.w3.org/2000/svg" xmlns:xlink="http://www.w3.org/1999/xlink" x="0px" y="0px"
	 viewBox="0 0 106 30" style="enable-background:new 0 0 106 30;" xml:space="preserve">
<style type="text/css">
	.st0{fill:#FFFFFF;}
</style>
<path class="st0" d="M64.7,10.7V6.4c0-3.4-2.8-6.3-6.2-6.3H41.2v10.6C23.1,11.6,7.9,14.4,0,18.2c9.4-2.3,24.1-4,41.2-4.5v1.1
	c0,3.4,2.8,6.3,6.2,6.3h17.2v-7.4c17.1,0.5,31.8,2.2,41.2,4.5C98,14.4,82.9,11.6,64.7,10.7z M63.6,19.9H47.4c-2.8,0-5.1-2.3-5.1-5.1
	V1.2h16.1c2.8,0,5.1,2.3,5.1,5.1V19.9z"/>
<title>fifth_third</title>
<path class="st0" d="M58.4,2H43.1v12.8c0,2.4,2,4.4,4.4,4.4h15.3V6.4C62.8,4,60.8,2,58.4,2z M45,4.1l5.7,0v0l0,3l-5.7,0V4.1z
	 M45.2,12.5c0,0,2.4-0.4,1.9-2.4c0,0-0.4-1.5-2.1-2l4,0c0,0,0.7,0,1.4,0.6c0.5,0.4,0.8,0.8,1,1.4c0.2,0.6,0.1,1.4-0.3,1.8h0
	c-0.1,0.1-0.7,0.7-1.6,0.7H45.2z M51.7,17.2l-0.8,0l3.5-13.4l0.8,0L51.7,17.2L51.7,17.2z M60.4,16.1c-0.1,0.1-0.7,0.8-2,0.8l-3.7,0
	c0,0,2.3-0.5,1.9-2.4c0,0-0.1-0.7-0.6-1.1c-0.5-0.5-1.1-0.8-1.3-0.9c0,0,0,0,0,0c2.4-0.5,1.9-2.3,1.9-2.3s-0.3-1.4-1.9-1.9l3.7,0
	c0,0,0.7,0,1.3,0.5c0.5,0.4,0.8,0.7,0.9,1.3c0.2,0.6,0,1.3-0.4,1.6c-0.1,0.1-0.5,0.6-1.5,0.8c0,0,0.8,0.3,1.2,0.7
	c0.3,0.2,0.6,0.6,0.7,1.2C61,15.1,60.7,15.7,60.4,16.1z"/>
<path class="st0" d="M8.7,26.6c0,0.7-0.7,0.9-1.4,0.9h-2v1.9c0.7,0.1,1,0.4,1,0.6v0H4v-6c-0.4-0.1-0.7-0.4-0.7-0.6v0h6.1V25h0
	c-0.2,0-0.5-0.3-0.6-0.7H5.3v2.3L8.7,26.6C8.7,26.5,8.7,26.6,8.7,26.6z"/>
<path class="st0" d="M12.3,30H9.9v-0.1c0-0.2,0.3-0.5,0.6-0.6V25c-0.3-0.1-0.6-0.4-0.6-0.6v-0.1h2.4v0.1c0,0.2-0.3,0.5-0.6,0.6v4.3
	C12,29.5,12.3,29.8,12.3,30L12.3,30L12.3,30z"/>
<path class="st0" d="M17.7,27.1c0,0.6-0.6,0.8-1.2,0.8h-1.6v1.4c0.5,0.1,0.9,0.4,0.9,0.6V30h-2.1v-5c-0.3-0.1-0.6-0.4-0.6-0.6v-0.1
	h5.2v1.5h-0.1c-0.2,0-0.5-0.3-0.6-0.6h-2.8v1.8L17.7,27.1L17.7,27.1L17.7,27.1z"/>
<path class="st0" d="M24,24.4v1.5H24c-0.2,0-0.5-0.3-0.6-0.6H22v4.1c0.4,0.1,0.8,0.4,0.8,0.6V30H20v-0.1c0-0.2,0.4-0.5,0.8-0.6v-4.1
	h-1.5c-0.1,0.3-0.4,0.6-0.6,0.6h-0.1v-1.5H24L24,24.4z"/>
<path class="st0" d="M26.3,26.7c0.4-0.1,0.9-0.2,1.7-0.2c0.8,0,1.3,0.1,1.7,0.2V25c-0.3-0.1-0.6-0.4-0.6-0.6v-0.1h2.4v0.1
	c0,0.2-0.3,0.5-0.6,0.6v4.3c0.3,0.1,0.6,0.4,0.6,0.6V30h-1.8v-2.3c-0.4-0.1-0.9-0.2-1.7-0.2c-0.8,0-1.3,0.1-1.7,0.2v1.6
	c0.3,0.1,0.6,0.4,0.6,0.6V30h-1.8v-5c-0.3-0.1-0.6-0.4-0.6-0.6v-0.1h2.4v0.1c0,0.2-0.3,0.5-0.6,0.6L26.3,26.7L26.3,26.7z"/>
<path class="st0" d="M42.8,23.3V25h0c-0.2,0-0.5-0.3-0.6-0.7h-2v5.1c0.4,0.1,0.7,0.4,0.7,0.6v0H38v0c0-0.2,0.3-0.5,0.7-0.6v-5.1h-2
	c-0.1,0.4-0.4,0.7-0.6,0.7h0v-1.7L42.8,23.3L42.8,23.3z"/>
<path class="st0" d="M44.9,26.7c0.4-0.1,0.9-0.2,1.7-0.2c0.8,0,1.3,0.1,1.7,0.2V25c-0.3-0.1-0.6-0.4-0.6-0.6v-0.1h2.4v0.1
	c0,0.2-0.3,0.5-0.6,0.6v4.3c0.3,0.1,0.6,0.4,0.6,0.6V30h-1.8v-2.3c-0.5-0.1-0.9-0.2-1.7-0.2c-0.8,0-1.3,0.1-1.7,0.2v1.6
	c0.3,0.1,0.6,0.4,0.6,0.6V30h-1.8v-5c-0.3-0.1-0.6-0.4-0.6-0.6v-0.1h2.4v0.1c0,0.2-0.3,0.5-0.6,0.6L44.9,26.7L44.9,26.7z"/>
<path class="st0" d="M53.4,30H51v-0.1c0-0.2,0.3-0.5,0.6-0.6V25c-0.3-0.1-0.6-0.4-0.6-0.6v-0.1h2.4v0.1c0,0.2-0.3,0.5-0.6,0.6v4.3
	C53.2,29.5,53.4,29.8,53.4,30L53.4,30L53.4,30z"/>
<path class="st0" d="M60.1,29.4l-1.2-1.7c0.9-0.2,1.5-0.6,1.5-1.6c0-1.2-0.9-1.7-2.3-1.7h-3.9v0.1c0,0.2,0.3,0.5,0.6,0.6v5h1.8v-0.1
	c0-0.2-0.3-0.5-0.6-0.6v-1.6h1.5l1.5,2.3h1.7v-0.1C60.8,29.7,60.4,29.4,60.1,29.4z M58,26.9h-2v-1.6h2c1,0,1.2,0.3,1.2,0.8
	C59.2,26.5,59,26.9,58,26.9L58,26.9z"/>
<path class="st0" d="M65.3,24.4h-3.9v0.1c0,0.2,0.3,0.5,0.6,0.6l0,0v5h3.3c1.6,0,2.8-0.9,2.8-2.8C68.1,25.3,66.9,24.4,65.3,24.4z
	 M64.9,29.1L64.9,29.1l-1.7,0v-3.8h1.7c1.3,0,2,0.4,2,1.9C66.9,28.7,66.2,29.1,64.9,29.1z"/>
<path class="st0" d="M78.2,26.5c0.9-0.2,1.5-0.7,1.5-1.5c0-1.3-1-1.7-2.6-1.7h0h-4.7v0c0,0.2,0.3,0.5,0.7,0.6v6h4.3
	c1.6,0,2.5-0.8,2.5-1.9C79.8,27.2,79.2,26.7,78.2,26.5z M74.4,24.4h2.5c0.8,0,1.4,0.1,1.4,0.7c0,0.7-0.6,0.9-1.4,0.9h-2.5V24.4z
	 M77,28.9h-2.6v-1.9H77c1.1,0,1.5,0.4,1.5,1C78.5,28.6,78.1,28.9,77,28.9z"/>
<path class="st0" d="M87.7,25c-0.3-0.1-0.6-0.4-0.6-0.6v-0.1h1.7l3.7,3.8V25c-0.3-0.1-0.6-0.4-0.6-0.6v-0.1h2.3v0.1
	c0,0.2-0.3,0.5-0.6,0.6v4.3c0.3,0.1,0.6,0.4,0.6,0.6V30h-1.6l-3.8-3.9v3.3c0.3,0.1,0.6,0.4,0.6,0.6V30h-1.7V25z"/>
<path class="st0" d="M99.2,24.9c-0.2-0.1-0.3-0.4-0.3-0.5v-0.1h2.3v0.1c0,0.3-0.4,0.5-0.6,0.6l-2,1.7l2.3,2.6
	c0.3,0.1,0.7,0.3,0.7,0.6V30h-1.7l-2.1-2.6l-0.9,0.7v1.2c0.3,0.1,0.6,0.4,0.6,0.6V30h-1.8v-5c-0.3-0.1-0.6-0.4-0.6-0.6v-0.1h2.4v0.1
	c0,0.2-0.3,0.5-0.6,0.6V27L99.2,24.9L99.2,24.9z"/>
<path class="st0" d="M86.4,29.4L84.3,25c0.2-0.1,0.5-0.3,0.5-0.5v-0.1h-2.7v0.1c0,0.2,0.2,0.4,0.5,0.5l-2,4.4
	c-0.3,0-0.7,0.3-0.7,0.6V30h2.3v-0.1l0,0c0-0.3-0.3-0.5-0.6-0.6l0.3-0.7c0.4-0.1,0.8-0.1,1.4-0.1c0.6,0,1.1,0.1,1.4,0.1l0.3,0.7
	c-0.3,0.1-0.6,0.3-0.6,0.6V30h2.6v-0.1C87.1,29.7,86.7,29.4,86.4,29.4z M83.3,27.7c-0.4,0-0.7,0-1,0l0.9-2l0,0h0.1l0.9,2
	C84,27.7,83.7,27.7,83.3,27.7z"/>
</svg>
