<?xml version="1.0" encoding="utf-8"?>
<!-- Generator: Adobe Illustrator 21.0.0, SVG Export Plug-In . SVG Version: 6.00 Build 0)  -->
<svg width="101" height="22" version="1.1" id="Layer_1" xmlns="http://www.w3.org/2000/svg" xmlns:xlink="http://www.w3.org/1999/xlink" x="0px" y="0px"
	 viewBox="0 0 101 22" style="enable-background:new 0 0 101 22;" xml:space="preserve">
<style type="text/css">
	.st0{fill:#858585;}
</style>
<title>Fill 2 + Fill 46</title>
<polygon class="st0" points="22.9,2.2 26.4,2.2 26.4,7.5 28.8,7.5 28.8,2.2 32.4,2.2 32.4,16.4 28.8,16.4 28.8,10.6 26.4,10.6 
	26.4,16.4 22.9,16.4 22.9,2.2 "/>
<path class="st0" d="M79.4,4h3.2v2.1h1.4v2.9h-1.4v3.8c0,0.9,0.6,3.2,1.1,3.8h-3.3c-0.2-0.3-0.9-1.5-0.9-3.2L79.4,4L79.4,4z"/>
<rect x="56.9" y="6.2" class="st0" width="3.3" height="10.2"/>
<path class="st0" d="M93.1,6.2h5.6c1.4,0,2.3,0.9,2.3,2.6v7.8h-3.2V9.2c0-0.9-1.4-0.9-1.4,0v7.4h-3.3L93.1,6.2L93.1,6.2z"/>
<path class="st0" d="M51.2,4h3v2.1h1.5v2.9h-1.5v3.8c0,0.9,0.8,3.2,1.2,3.8h-3.5c-0.2-0.3-0.8-1.5-0.8-3.2L51.2,4L51.2,4z"/>
<path class="st0" d="M61.3,6.2h5.6c1.4,0,2.3,0.9,2.3,2.6v7.8h-3V9.2c-0.2-0.9-1.5-0.9-1.5,0v7.4h-3.3C61.3,16.6,61.3,6.2,61.3,6.2z
	"/>
<path class="st0" d="M42.3,6.2h5.6c1.4,0,2.3,0.9,2.3,2.6v7.8h-3V9.2c-0.2-0.9-1.5-0.9-1.5,0v7.4h-3.3L42.3,6.2L42.3,6.2z"/>
<path class="st0" d="M35.8,16.6c-1.4,0-2.3-0.9-2.3-2.6V6.2h3v7.4c0.2,0.9,1.5,0.9,1.5,0V6.2h3.3v10.4H35.8z"/>
<g>
	<polygon class="st0" points="88.3,6.2 88.3,6.2 88.3,6.2 	"/>
	<path class="st0" d="M92.4,10.4c0-3.9-1.5-4.2-4.1-4.2c-2.4,0-4.1,0.3-4.1,4.2v2.3c0,3.8,1.7,4.2,4.1,4.2c2.4,0,4.1-0.5,4.2-4.2
		L92.4,10.4z M89.1,13.5c0,1.1-1.5,0.9-1.5,0V9.5c0-1.1,1.5-1.1,1.5,0V13.5z"/>
</g>
<path class="st0" d="M73,6.2L73,6.2c-2.3,0-2.6,2.7-2.6,5.3c0,2.4,0.3,4.8,2.6,4.8h2.6c0,0,0.5,2.1-0.9,2.1c-1.5,0-1.2-1.7-1.2-1.7
	h-3.3v0.8c0,1.7,1.1,3.2,4.1,3.2c3,0,4.4-1.5,4.4-3.2V6.2H73z M75.4,13.5c0,0.9-1.2,0.9-1.4,0c-0.1-2.1-0.1-2.1,0-4.4
	c0.2-1.1,1.4-1.1,1.4,0h0C75.5,11.4,75.5,11.4,75.4,13.5z"/>
<path class="st0" d="M8.9,0.2v6.7L6.6,8.2V1.4C6.6,1.4,7.2,1,8.9,0.2L8.9,0.2z"/>
<path class="st0" d="M13.3,2.1c0.4,0.2,2.1,1.1,2.3,1.3v15.3l-2.3,1.2v-7.7l-4.4,2.5v7.1l-2.3-1.3v-7.3l6.6-4V2.1z"/>
<polygon class="st0" points="2.5,3.9 2.5,18.1 0,16.7 0,5.4 "/>
<path class="st0" d="M16.5,3.9c0.5,0.3,1.4,0.9,2.4,1.3v11.5L16.6,18h-0.1L16.5,3.9L16.5,3.9z"/>
<polygon class="st0" points="12.3,13.7 12.3,20.5 9.9,21.8 9.9,15.1 12.3,13.7 "/>
<path class="st0" d="M9.9,0.2c0.5,0.2,2,1,2.5,1.3v7.1l-6.6,4v7.3l-2.4-1.2V3.4L5.7,2v7.8l4.2-2.6L9.9,0.2L9.9,0.2z"/>
</svg>
